<svg width="53" height="55" viewBox="0 0 53 55" fill="none" xmlns="http://www.w3.org/2000/svg">
<path d="M48.5019 16.9354C47.7437 7.4713 39.7274 0 29.9823 0H22.7294C12.9843 0 4.96802 7.4713 4.20973 16.9354C1.80102 17.4938 0 19.6529 0 22.2256V31.1268C0 33.7008 1.80285 35.8608 4.21338 36.4178C4.9322 44.9393 11.838 51.7459 20.4555 52.4015C21.0189 53.9171 22.4815 55 24.1928 55H28.0298C30.2272 55 32.015 53.2148 32.015 51.0205V50.6638C32.015 48.4695 30.2272 46.6843 28.0298 46.6843H24.1928C22.5241 46.6843 21.0926 47.7142 20.4999 49.1704C13.6325 48.5515 8.1389 43.1596 7.45063 36.3864C8.53854 36.1052 9.49434 35.4946 10.2072 34.6691C13.1751 40.5298 19.2986 44.5625 26.3558 44.5625C33.4131 44.5625 39.5366 40.5298 42.5044 34.6691C43.5027 35.8251 44.9784 36.559 46.6234 36.559H47.2718C50.2713 36.559 52.7117 34.1221 52.7117 31.127V22.2256C52.7117 19.6529 50.9107 17.4938 48.5019 16.9354ZM23.4349 50.6638C23.4349 50.2465 23.7749 49.9069 24.1928 49.9069H28.0298C28.4477 49.9069 28.7878 50.2465 28.7878 50.6638V51.0205C28.7878 51.4378 28.4477 51.7773 28.0298 51.7773H24.1928C23.7749 51.7773 23.4349 51.4378 23.4349 51.0205V50.6638ZM22.7294 3.22266H29.9823C37.9563 3.22266 44.5288 9.26643 45.2645 16.9651C44.1751 17.2459 43.2181 17.8571 42.5043 18.6835C39.5366 12.8227 33.4131 8.79012 26.3558 8.79012C19.2986 8.79012 13.1751 12.8227 10.2072 18.6835C9.49359 17.8571 8.53649 17.2459 7.44708 16.9651C8.183 9.26643 14.7555 3.22266 22.7294 3.22266ZM8.30091 31.1269C8.30091 32.3452 7.30831 33.3362 6.08831 33.3362H5.43985C4.21984 33.3362 3.22725 32.3452 3.22725 31.1269V22.2256C3.22725 21.0073 4.21984 20.0162 5.43985 20.0162H6.08831C7.30831 20.0162 8.30091 21.0074 8.30091 22.2256V31.1269ZM26.3558 41.3397C18.1798 41.3397 11.5282 34.7617 11.5282 26.6762C11.5282 18.5908 18.1798 12.0128 26.3558 12.0128C34.5318 12.0128 41.1835 18.5908 41.1835 26.6762C41.1835 34.7617 34.5318 41.3397 26.3558 41.3397ZM49.4844 31.1269C49.4844 32.3452 48.4918 33.3362 47.2718 33.3362H46.6234C45.4034 33.3362 44.4108 32.345 44.4108 31.1269V22.2256C44.4108 21.0073 45.4034 20.0162 46.6234 20.0162H47.2718C48.4918 20.0162 49.4844 21.0074 49.4844 22.2256V31.1269Z" fill="#FC8021"/>
<path d="M20.7889 24.8593C21.6801 24.8593 22.4025 24.1379 22.4025 23.248V21.695C22.4025 20.8051 21.6801 20.0837 20.7889 20.0837C19.8978 20.0837 19.1753 20.8051 19.1753 21.695V23.248C19.1753 24.1379 19.8978 24.8593 20.7889 24.8593Z" fill="#FC8021"/>
<path d="M31.9227 20.0837C31.0316 20.0837 30.3091 20.8051 30.3091 21.695V23.248C30.3091 24.1379 31.0316 24.8593 31.9227 24.8593C32.8139 24.8593 33.5363 24.1379 33.5363 23.248V21.695C33.5363 20.8051 32.8139 20.0837 31.9227 20.0837Z" fill="#FC8021"/>
<path d="M31.9227 27.9302C31.0315 27.9302 30.3091 28.6516 30.3091 29.5415C30.3091 30.4567 29.5506 31.2012 28.6182 31.2012H24.0934C23.161 31.2012 22.4025 30.4566 22.4025 29.5415C22.4025 28.6516 21.6801 27.9302 20.7889 27.9302C19.8978 27.9302 19.1753 28.6516 19.1753 29.5415C19.1753 32.2337 21.3815 34.4238 24.0934 34.4238H28.6182C31.3301 34.4238 33.5363 32.2336 33.5363 29.5415C33.5363 28.6516 32.8138 27.9302 31.9227 27.9302Z" fill="#FC8021"/>
</svg>
