<svg width="54" height="51" viewBox="0 0 54 51" fill="none" xmlns="http://www.w3.org/2000/svg">
<path d="M51.1029 0H39.9869C39.5506 0 39.1968 0.353742 39.1968 0.790066C39.1968 1.22639 39.5505 1.58013 39.9869 1.58013H51.1029C51.8289 1.58013 52.4196 2.17076 52.4196 2.89691V33.8287C52.4196 34.5547 51.829 35.1455 51.1029 35.1455H45.9125C45.8719 35.0883 45.8316 35.0309 45.7892 34.9747C44.9916 33.9147 43.9002 33.0851 42.6739 32.5959V31.7483H47.591C48.317 31.7483 48.9077 31.1577 48.9077 30.4315V6.00602C48.9077 5.27998 48.3171 4.68925 47.591 4.68925H17.3402C16.6142 4.68925 16.0234 5.27987 16.0234 6.00602V30.4313C16.0234 31.1574 16.6141 31.7481 17.3402 31.7481H33.8979C34.3342 31.7481 34.6879 31.3944 34.6879 30.958C34.6879 30.5217 34.3343 30.168 33.8979 30.168H17.6036V6.26938H47.3277V30.168H42.674V29.5379C42.674 29.1576 42.6165 28.7804 42.5029 28.4171L41.0844 23.8775C40.9335 23.395 40.4924 23.0708 39.9868 23.0708C39.4812 23.0708 39.0403 23.3951 38.8896 23.8776L37.471 28.417C37.3575 28.78 37.3 29.1571 37.3 29.5379V32.6017C35.9694 33.1313 34.8608 34.0244 34.071 35.1452H9.11038C8.67406 35.1452 8.32031 35.499 8.32031 35.9353C8.32031 36.3716 8.67395 36.7254 9.11038 36.7254H33.2297C32.9214 37.535 32.7547 38.411 32.7547 39.321C32.7547 42.3181 34.5582 44.9488 37.2999 46.0401V47.2908C37.2999 47.888 37.379 48.4829 37.5349 49.0589C37.8386 50.1814 38.824 50.9355 39.987 50.9355C41.15 50.9355 42.1353 50.1813 42.439 49.0588C42.595 48.4824 42.6741 47.8876 42.6741 47.2908V46.0462C43.9004 45.5569 44.9917 44.7273 45.7895 43.6673C46.7386 42.4062 47.2402 40.9033 47.2402 39.321C47.2402 38.4199 47.077 37.545 46.7617 36.7254H51.103C52.7002 36.7254 53.9998 35.4259 53.9998 33.8286V2.8968C53.9997 1.29948 52.7001 0 51.1029 0ZM34.3347 39.3209C34.3347 37.1992 35.4904 35.3127 37.2999 34.3419V44.2997C35.4904 43.329 34.3347 41.4425 34.3347 39.3209ZM40.9137 48.6461C40.7722 49.1691 40.3422 49.3554 39.9869 49.3554C39.6317 49.3554 39.2016 49.169 39.06 48.6459C38.9405 48.2044 38.8799 47.7484 38.8799 47.2907V29.538C38.8799 29.3173 38.9132 29.0988 38.9789 28.8884L39.9869 25.6632L40.9947 28.8883C41.0606 29.0989 41.0939 29.3176 41.0939 29.538V47.2908C41.0939 47.7482 41.0332 48.2043 40.9137 48.6461ZM42.6739 44.3108V34.3309C44.4958 35.2979 45.6599 37.1892 45.6599 39.3209C45.6599 41.4525 44.4958 43.3439 42.6739 44.3108Z" fill="#36C2AE"/>
<path d="M5.14614 35.1453H2.8968C2.17076 35.1453 1.58003 34.5547 1.58003 33.8286V2.89691C1.58003 2.17086 2.17065 1.58013 2.8968 1.58013H36.2617C36.6981 1.58013 37.0518 1.22639 37.0518 0.790066C37.0518 0.353742 36.6982 0 36.2617 0H2.8968C1.29959 0.000105469 0 1.29959 0 2.89691V33.8287C0 35.426 1.29959 36.7255 2.8968 36.7255H5.14614C5.58246 36.7255 5.9362 36.3717 5.9362 35.9354C5.9362 35.4991 5.58257 35.1453 5.14614 35.1453Z" fill="#36C2AE"/>
<path d="M4.13232 17.9836C4.13232 20.544 6.21533 22.6269 8.77569 22.6269C11.3361 22.6269 13.419 20.544 13.419 17.9836C13.419 15.4233 11.3361 13.3403 8.77569 13.3403C6.21533 13.3403 4.13232 15.4233 4.13232 17.9836ZM8.77569 14.9205C10.4647 14.9205 11.8388 16.2946 11.8388 17.9836C11.8388 19.6727 10.4647 21.0468 8.77569 21.0468C7.08661 21.0468 5.71246 19.6727 5.71246 17.9836C5.71235 16.2945 7.0865 14.9205 8.77569 14.9205Z" fill="#36C2AE"/>
<path d="M10.8607 12.4417C11.4706 12.4417 11.9667 11.9455 11.9667 11.3357V5.79538C11.9667 5.18556 11.4706 4.68933 10.8607 4.68933H6.6915C6.08157 4.68933 5.58545 5.18556 5.58545 5.79538V11.3357C5.58545 11.9455 6.08157 12.4417 6.6915 12.4417H10.8607ZM7.16548 10.8617V9.35559H10.3866V10.8617H7.16548ZM10.3867 6.26946V7.77556H7.16548V6.26946H10.3867Z" fill="#36C2AE"/>
<path d="M11.9667 30.6422V25.1019C11.9667 24.4921 11.4706 23.9958 10.8607 23.9958H6.6915C6.08157 23.9958 5.58545 24.4921 5.58545 25.1019V30.6422C5.58545 31.252 6.08157 31.7482 6.6915 31.7482H10.8607C11.4706 31.7482 11.9667 31.252 11.9667 30.6422ZM10.3867 25.5759V27.082H7.16548V25.5759H10.3867ZM7.16548 30.1682V28.6621H10.3866V30.1682H7.16548Z" fill="#36C2AE"/>
<path d="M29.4294 19.5334C29.9787 19.9952 30.9291 20.4099 32.3348 19.7631C33.1642 19.3816 33.9758 18.7305 34.7608 18.101C35.5692 17.4526 36.7914 16.4728 37.1274 16.7493C37.4466 17.0119 37.1697 18.059 36.9673 18.8237C36.6409 20.0571 36.2346 21.5922 37.4151 22.3868C37.5505 22.478 37.7039 22.5216 37.8555 22.5216C38.1096 22.5216 38.359 22.3993 38.5117 22.1726C38.7554 21.8107 38.6594 21.3197 38.2975 21.0761C38.0498 20.9093 38.3284 19.8568 38.4948 19.2278C38.824 17.9838 39.2336 16.4357 38.1309 15.5289C36.8031 14.4372 35.1928 15.7288 33.772 16.8685C32.2568 18.0837 31.1318 18.8998 30.4459 18.3239C29.564 17.5825 30.1363 16.2292 31.11 14.2494C32.0008 12.438 33.0104 10.3849 31.5623 9.02858C30.3347 7.87865 28.2843 8.40072 25.294 10.6249C23.3117 12.0993 21.629 13.7946 21.5584 13.866C21.2516 14.1762 21.2543 14.6763 21.5645 14.9831C21.8747 15.2899 22.3749 15.2873 22.6818 14.9772C25.6215 12.0068 29.5486 9.30681 30.4822 10.1819C31.0334 10.698 30.5024 11.9044 29.692 13.5521C28.7307 15.5072 27.5342 17.9405 29.4294 19.5334Z" fill="#36C2AE"/>
<path d="M8.77583 18.8741C9.26768 18.8741 9.66641 18.4753 9.66641 17.9835C9.66641 17.4916 9.26768 17.0929 8.77583 17.0929C8.28398 17.0929 7.88525 17.4916 7.88525 17.9835C7.88525 18.4753 8.28398 18.8741 8.77583 18.8741Z" fill="#36C2AE"/>
</svg>
