<svg width="70" height="70" viewBox="0 0 70 70" fill="none" xmlns="http://www.w3.org/2000/svg">
<path d="M38.6444 0H8.01937C3.5875 0 0 3.5875 0 8.01938V53.2262C0 57.6625 3.5875 61.25 8.01937 61.25H35.5819L36.4875 57.6056L30.0125 52.0625C27.9694 50.3125 27.1819 47.5431 28.0569 44.975C28.2012 44.5375 28.3762 44.1306 28.6387 43.75C29.7194 41.8819 31.6706 40.6569 33.8887 40.5431L37.9137 40.3113L40.3069 40.1669L41.9125 40.0794L44.8875 32.0294C45.2681 30.9794 45.8806 30.1044 46.6681 29.4044V8.01938C46.6681 3.5875 43.0806 0 38.6444 0ZM35 29.8944C35 30.7781 34.4662 31.5744 33.6481 31.9156C33.3769 32.0294 33.0925 32.0819 32.8125 32.0819C32.2437 32.0819 31.6837 31.8588 31.2637 31.4431L28.9625 29.1375L24.8194 32.9613C24.1194 33.6088 23.0825 33.7269 22.2512 33.2544L18.5981 31.1675L12.4862 37.275C12.0575 37.7038 11.4975 37.9137 10.9375 37.9137C10.3775 37.9137 9.8175 37.6994 9.38875 37.275C8.53562 36.4219 8.53562 35.035 9.38875 34.1819L16.6819 26.8888C17.3819 26.1887 18.4581 26.0444 19.3156 26.5344L23.03 28.6562L25.865 26.0356L23.975 24.15C23.3494 23.5244 23.1612 22.5838 23.5025 21.7656C23.8394 20.9475 24.64 20.4138 25.5237 20.4138H32.8125C34.02 20.4138 35 21.3938 35 22.6013V29.8944Z" fill="#FF8974"/>
<path d="M61.4075 69.9999C60.9788 69.9999 60.55 69.873 60.1782 69.6193L51.0432 63.4024L41.9082 69.6193C41.1557 70.1268 40.1669 70.1268 39.4232 69.6018C38.6794 69.0812 38.3338 68.1537 38.5569 67.2743L41.4007 56.048L32.8519 48.7462C32.1738 48.1687 31.9157 47.2324 32.2 46.3837C32.4844 45.5393 33.2588 44.9487 34.1513 44.8962L45.045 44.2793L48.9913 33.5168C49.3063 32.6549 50.1288 32.0818 51.0432 32.0818C51.9576 32.0818 52.78 32.6549 53.095 33.5168L57.0413 44.2793L67.935 44.8962C68.8275 44.9487 69.5976 45.5349 69.8863 46.3837C70.1707 47.2324 69.9126 48.1687 69.2344 48.7462L60.6857 56.048L63.5294 67.2743C63.7526 68.1537 63.4069 69.0812 62.6632 69.6018C62.2825 69.8687 61.845 69.9999 61.4075 69.9999Z" fill="#FF8974"/>
</svg>
