<svg width="24" height="24" viewBox="0 0 24 24" fill="none" xmlns="http://www.w3.org/2000/svg">
<path d="M22.5093 0.818848H0.523487C0.234139 0.818848 0 1.05265 0 1.34159V15.4552C0 16.6084 0.939058 17.5461 2.0939 17.5461H8.17292L6.30874 23.1307C6.21722 23.4048 6.36547 23.7009 6.63951 23.7918C6.69472 23.8102 6.75042 23.8188 6.80514 23.8188C7.02446 23.8188 7.22841 23.6805 7.30154 23.4615L9.27613 17.5461H10.9929V23.2961C10.9929 23.585 11.227 23.8188 11.5164 23.8188C11.8057 23.8188 12.0399 23.585 12.0399 23.2961V17.5461H13.7567L15.7313 23.4614C15.8044 23.6805 16.0083 23.8188 16.2277 23.8188C16.2824 23.8188 16.3381 23.8101 16.3933 23.7917C16.6673 23.7009 16.8155 23.4048 16.7241 23.1307L14.8599 17.5461H20.9389C22.0937 17.5461 23.0328 16.6084 23.0328 15.4552V1.34154C23.0327 1.05265 22.7986 0.818848 22.5093 0.818848ZM21.9858 15.4552C21.9858 16.0315 21.516 16.5006 20.9389 16.5006H2.0939C1.51677 16.5006 1.04697 16.0315 1.04697 15.4552V1.86428H21.9858V15.4552Z" fill="#5DC8AC"/>
<path d="M3.66436 14.4095H6.80518C7.09453 14.4095 7.32867 14.1757 7.32867 13.8868V9.70499C7.32867 9.41606 7.09453 9.18225 6.80518 9.18225H3.66436C3.37501 9.18225 3.14087 9.41606 3.14087 9.70499V13.8868C3.14087 14.1757 3.37501 14.4095 3.66436 14.4095ZM4.18779 10.2277H6.28169V13.3641H4.18779V10.2277Z" fill="#5DC8AC"/>
<path d="M9.9461 14.4097H13.0869C13.3763 14.4097 13.6104 14.1759 13.6104 13.8869V6.56876C13.6104 6.27983 13.3763 6.04602 13.0869 6.04602H9.9461C9.65675 6.04602 9.42261 6.27983 9.42261 6.56876V13.8869C9.42261 14.1759 9.65675 14.4097 9.9461 14.4097ZM10.4695 7.09151H12.5634V13.3642H10.4695V7.09151Z" fill="#5DC8AC"/>
<path d="M16.2276 14.4098H19.3684C19.6578 14.4098 19.8919 14.176 19.8919 13.887V4.47794C19.8919 4.18901 19.6578 3.9552 19.3684 3.9552H16.2276C15.9382 3.95525 15.7041 4.18905 15.7041 4.47799V13.8871C15.7041 14.176 15.9382 14.4098 16.2276 14.4098ZM16.751 5.00069H18.8449V13.3643H16.751V5.00069Z" fill="#5DC8AC"/>
</svg>
