<svg width="876" height="876" viewBox="0 0 876 876" fill="none" xmlns="http://www.w3.org/2000/svg">
<path d="M624.395 229.267C624.395 229.267 553.86 151.986 442.187 155.683C330.515 159.379 235.259 234.26 156.506 292.847C77.7538 351.434 56.6422 442.432 102.422 513.476C148.202 584.52 221.155 554.613 314.029 600.726C406.902 646.838 424.545 673.031 528 661.818C631.456 650.605 710.208 535.919 698.47 413.752C686.732 291.585 624.395 229.267 624.395 229.267Z" fill="#C6FF00"/>
<path d="M624.395 229.267C624.395 229.267 553.86 151.986 442.187 155.683C330.515 159.379 235.259 234.26 156.506 292.847C77.7538 351.434 56.6422 442.432 102.422 513.476C148.202 584.52 221.155 554.613 314.029 600.726C406.902 646.838 424.545 673.031 528 661.818C631.456 650.605 710.208 535.919 698.47 413.752C686.732 291.585 624.395 229.267 624.395 229.267Z" fill="#FCBEB6"/>
<path d="M405.807 695.561C597.896 695.561 753.614 687.066 753.614 676.587C753.614 666.108 597.896 657.613 405.807 657.613C213.718 657.613 58 666.108 58 676.587C58 687.066 213.718 695.561 405.807 695.561Z" fill="#C6FF00"/>
<path d="M405.807 695.561C597.896 695.561 753.614 687.066 753.614 676.587C753.614 666.108 597.896 657.613 405.807 657.613C213.718 657.613 58 666.108 58 676.587C58 687.066 213.718 695.561 405.807 695.561Z" fill="#FF8974"/>
<path d="M611.352 390.59C611.247 390.59 612.561 384.055 612.701 383.582C614.207 378.922 619.884 370.793 625.368 370.81C626.279 370.836 627.176 371.054 627.998 371.449C628.82 371.844 629.55 372.408 630.14 373.104C630.729 373.799 631.166 374.612 631.422 375.487C631.677 376.363 631.746 377.282 631.622 378.186C631.219 382.058 627.75 385.334 624.614 387.244C620.935 389.539 611.352 390.59 611.352 390.59Z" fill="#FF8974"/>
<path d="M600.717 346.598C605.885 348.455 608.461 358.021 608.286 362.926C608.286 363.347 607.304 369.934 607.217 369.934H607.112C607.515 371.441 607.953 373.07 608.391 374.84C609.162 378.134 610.003 381.848 610.651 385.983C611.402 390.418 611.894 394.893 612.123 399.385C612.402 404.413 612.232 409.455 611.614 414.453C611.605 414.511 611.605 414.57 611.614 414.628C612.298 413.174 614.312 409.144 614.505 408.846C617.203 404.747 624.807 398.334 630.116 399.876C630.986 400.144 631.79 400.592 632.475 401.191C633.161 401.79 633.714 402.526 634.097 403.352C634.48 404.178 634.685 405.075 634.7 405.985C634.714 406.895 634.537 407.798 634.18 408.636C632.779 412.245 628.574 414.505 625.052 415.504C621.075 416.643 612.21 415.294 611.509 415.188C610.762 420.255 609.673 425.266 608.251 430.186C607.433 433.059 606.545 435.932 605.588 438.805C606.201 437.562 606.779 436.458 606.867 436.3C609.565 432.2 617.168 425.788 622.477 427.312C623.348 427.578 624.154 428.025 624.842 428.623C625.529 429.221 626.082 429.958 626.466 430.784C626.85 431.611 627.054 432.509 627.067 433.42C627.08 434.331 626.901 435.235 626.541 436.072C625.14 439.699 620.935 441.942 617.414 442.958C613.892 443.974 606.253 442.958 604.256 442.695C603.888 443.781 603.52 444.885 603.135 445.971C601.383 451.227 599.491 456.483 597.879 461.634C597.301 463.386 596.792 465.278 596.284 467.1C596.845 465.996 597.318 465.068 597.406 464.945C600.086 460.846 607.707 454.433 612.999 455.958C613.869 456.226 614.673 456.674 615.359 457.273C616.045 457.871 616.598 458.607 616.983 459.432C617.368 460.257 617.575 461.154 617.592 462.064C617.609 462.975 617.434 463.879 617.081 464.718C615.679 468.327 611.457 470.587 607.935 471.585C604.414 472.584 597.528 471.708 595.146 471.375C594.673 473.267 594.217 475.142 593.849 476.982C593.621 478.243 593.324 479.452 593.166 480.731C593.008 482.01 592.815 483.254 592.64 484.48C592.395 486.88 592.115 489.368 591.939 491.716C591.799 493.345 591.694 494.904 591.589 496.464C592.132 494.712 593.341 491.103 593.429 490.805C595.374 486.954 598.268 483.662 601.838 481.239C602.033 480.8 602.274 480.383 602.557 479.995C603.053 479.23 603.705 478.579 604.469 478.082C605.234 477.586 606.095 477.256 606.995 477.114C607.896 476.972 608.816 477.021 609.696 477.258C610.577 477.494 611.397 477.914 612.105 478.488C616.275 481.992 615.224 491.944 613.314 496.464C613.209 496.727 611.649 499.477 610.651 501.194C611.404 500.283 612.105 499.442 612.893 498.426C614.418 496.569 615.994 494.747 617.676 492.785L620.252 489.999C621.093 489.035 622.109 488.142 623.037 487.213C625.227 485.093 627.558 483.043 629.958 481.029C628.311 479.697 622.582 474.844 620.935 471.55C619.288 468.257 618.114 463.649 619.831 460.18C620.207 459.347 620.754 458.602 621.437 457.994C622.119 457.386 622.923 456.93 623.794 456.654C624.665 456.378 625.585 456.288 626.493 456.392C627.401 456.495 628.277 456.789 629.064 457.254C633.707 460.162 634.18 470.061 632.971 474.774C632.971 475.072 631.64 478.383 630.921 480.188C632.376 478.996 633.812 477.787 635.319 476.684C639.664 473.32 644.167 470.061 648.634 466.785L652.716 463.754C652.138 463.281 645.2 457.674 643.343 453.995C641.714 450.719 640.522 446.094 642.239 442.607C642.617 441.776 643.165 441.033 643.848 440.427C644.531 439.821 645.334 439.365 646.205 439.089C647.075 438.813 647.994 438.724 648.901 438.826C649.809 438.928 650.685 439.219 651.472 439.681C656.115 442.607 656.588 452.506 655.379 457.201C655.292 457.569 653.487 462.335 652.962 463.526C655.958 461.284 658.918 459.041 661.722 456.711C665.56 453.576 669.188 450.194 672.584 446.584C672.321 446.374 665.05 440.557 663.158 436.773C661.511 433.497 660.338 428.872 662.054 425.403C662.428 424.57 662.973 423.825 663.654 423.218C664.336 422.61 665.137 422.154 666.007 421.877C666.877 421.601 667.796 421.512 668.703 421.615C669.61 421.718 670.484 422.012 671.27 422.477C675.93 425.385 676.403 435.284 675.194 439.997C675.107 440.295 673.74 443.939 673.04 445.656L673.32 445.813C676.643 442.092 679.627 438.082 682.237 433.83C683.692 431.517 684.971 429.222 686.162 426.944C684.69 425.998 678.05 421.688 675.965 418.395C673.88 415.101 672.304 410.861 673.618 407.217C673.901 406.359 674.36 405.57 674.965 404.9C675.57 404.229 676.308 403.692 677.132 403.323C677.957 402.954 678.849 402.76 679.752 402.755C680.655 402.75 681.549 402.933 682.378 403.292C687.336 405.675 688.878 415.469 688.194 420.322C688.194 420.585 687.493 423.23 686.985 425.157C687.493 424.124 688.054 423.072 688.527 422.074C690.279 418.325 691.768 414.786 692.995 411.562C693.696 409.81 694.274 408.058 694.747 406.604C693.783 404.852 690.034 398.106 689.666 394.34C689.298 390.573 689.894 385.948 692.749 383.32C693.401 382.681 694.179 382.186 695.035 381.868C695.89 381.55 696.802 381.415 697.713 381.473C698.624 381.531 699.512 381.78 700.32 382.204C701.128 382.627 701.838 383.217 702.403 383.933C705.697 388.33 702.561 397.721 699.722 401.733C699.477 402.066 695.01 406.989 694.957 406.989V406.884C694.466 408.373 693.941 409.968 693.31 411.684C692.154 414.856 690.787 418.447 689.07 422.196C687.241 426.306 685.176 430.308 682.886 434.18C680.335 438.519 677.403 442.623 674.126 446.444L674.003 446.584C675.37 445.726 679.259 443.501 679.592 443.361C684.112 441.433 693.958 440.33 697.567 444.482C698.146 445.187 698.57 446.005 698.812 446.884C699.054 447.763 699.11 448.682 698.974 449.584C698.839 450.486 698.516 451.349 698.026 452.118C697.536 452.886 696.891 453.544 696.131 454.048C692.96 456.29 688.194 455.8 684.708 454.731C680.766 453.487 674.196 447.478 673.583 447.005C670.166 450.816 666.496 454.393 662.598 457.71C660.32 459.672 657.99 461.564 655.59 463.421C656.798 462.738 657.885 462.125 658.042 462.054C662.545 460.127 672.391 459.024 676 463.176C676.581 463.879 677.008 464.698 677.251 465.577C677.495 466.456 677.551 467.377 677.416 468.279C677.28 469.181 676.956 470.045 676.465 470.814C675.973 471.583 675.326 472.24 674.564 472.742C671.41 474.984 666.645 474.494 663.158 473.425C659.672 472.356 653.838 467.31 652.331 465.961L649.58 468.081C645.165 471.463 640.82 474.809 636.528 478.225C635.039 479.434 633.62 480.678 632.183 481.905C633.269 481.291 634.163 480.783 634.32 480.731C638.823 478.786 648.669 477.7 652.278 481.835C652.862 482.537 653.29 483.355 653.536 484.235C653.781 485.114 653.838 486.036 653.702 486.939C653.567 487.842 653.242 488.707 652.749 489.476C652.256 490.244 651.606 490.9 650.842 491.4C647.671 493.643 642.923 493.152 639.436 492.101C635.95 491.05 630.676 486.46 628.924 484.866C627.505 486.18 626.068 487.476 624.754 488.825C623.861 489.754 623.002 490.577 622.126 491.576C621.25 492.574 620.374 493.468 619.604 494.414C618.079 496.271 616.485 498.198 615.031 500.055C614.015 501.334 613.069 502.578 612.123 503.822C613.577 502.613 616.52 500.318 616.783 500.125C620.935 497.532 630.501 494.957 634.706 498.496C635.385 499.107 635.928 499.854 636.299 500.689C636.671 501.523 636.863 502.427 636.863 503.34C636.863 504.254 636.671 505.157 636.299 505.992C635.928 506.826 635.385 507.573 634.706 508.185C631.92 510.865 627.155 511.163 623.546 510.602C619.551 509.972 612.333 505.346 611.439 504.681C609.862 506.748 608.356 508.78 606.954 510.725C602.101 517.435 598.317 523.199 595.724 527.281L595.461 527.684L592.097 526.055C592.272 525.792 592.448 525.547 592.623 525.267C595.338 521.202 599.298 515.455 604.344 508.78C605.938 506.678 607.672 504.453 609.477 502.175C607.599 500.132 605.844 497.979 604.221 495.728C600.349 497.235 592.307 497.305 591.274 497.305C591.116 499.898 590.976 502.421 590.871 504.803C590.52 513.09 590.555 519.993 590.643 524.811V525.389L586.946 523.637C586.946 518.854 587.139 512.354 587.63 504.698C587.787 502.053 588.015 499.232 588.278 496.359C587.244 496.096 578.887 493.941 575.733 491.418C572.878 489.14 569.864 485.426 569.969 481.554C569.96 480.641 570.143 479.736 570.507 478.898C570.872 478.061 571.409 477.31 572.084 476.695C572.759 476.079 573.556 475.613 574.424 475.328C575.291 475.042 576.209 474.943 577.118 475.037C582.566 475.738 587.121 484.533 588.033 489.351C588.033 489.631 588.313 492.855 588.418 494.782C588.541 493.59 588.628 492.452 588.751 491.278C588.996 488.878 589.311 486.477 589.644 483.902C589.837 482.675 590.047 481.432 590.24 480.17C590.433 478.909 590.766 477.612 591.028 476.316C591.694 473.337 592.5 470.341 593.394 467.346C591.291 467.118 583.845 466.242 580.639 464.42C577.433 462.598 573.929 459.374 573.456 455.537C573.307 454.635 573.35 453.712 573.582 452.828C573.815 451.944 574.232 451.119 574.806 450.407C575.381 449.696 576.099 449.114 576.914 448.699C577.729 448.285 578.622 448.048 579.535 448.003C585.019 447.863 590.871 455.87 592.483 460.495C592.588 460.793 593.376 464.244 593.762 466.154C594.322 464.402 594.848 462.545 595.514 460.758C597.266 455.502 599.245 450.351 601.173 445.148C601.768 443.553 602.329 441.959 602.925 440.382C602.171 440.382 593.288 439.454 589.714 437.404C586.543 435.652 583.004 432.358 582.514 428.521C582.37 427.62 582.417 426.699 582.652 425.817C582.887 424.935 583.305 424.113 583.878 423.402C584.451 422.692 585.167 422.11 585.979 421.694C586.791 421.278 587.682 421.038 588.593 420.988C594.094 420.847 599.946 428.854 601.558 433.479C601.681 433.83 602.802 438.735 603.03 440.084C604.291 436.58 605.535 433.076 606.534 429.572C608.015 424.842 609.186 420.019 610.038 415.136C609.687 415.136 600.402 414.26 596.757 412.158C593.569 410.406 590.03 407.112 589.557 403.275C589.413 402.374 589.46 401.452 589.695 400.571C589.93 399.689 590.348 398.866 590.921 398.156C591.494 397.446 592.21 396.864 593.022 396.448C593.834 396.032 594.725 395.791 595.636 395.741C601.12 395.619 606.972 403.608 608.583 408.233C608.689 408.548 609.547 412.333 609.915 414.137H610.23C610.954 409.202 611.235 404.213 611.071 399.228C611.071 396.477 610.809 393.867 610.546 391.309C608.794 391.309 600.84 391.309 597.336 389.802C593.832 388.295 590.1 385.527 589.189 381.76C588.946 380.878 588.892 379.954 589.031 379.05C589.169 378.145 589.497 377.28 589.994 376.511C590.49 375.742 591.143 375.086 591.91 374.587C592.677 374.087 593.541 373.756 594.445 373.614C599.894 372.878 606.586 380.184 608.706 384.616C608.811 384.861 609.722 387.437 610.335 389.311C610.213 388.173 610.09 386.981 609.933 385.895C609.389 381.778 608.619 378.029 607.918 374.735C607.497 372.86 607.094 371.231 606.691 369.601C604.939 368.725 598.071 365.116 595.706 362.191C593.341 359.265 591.274 355.077 592.202 351.311C592.402 350.413 592.791 349.568 593.342 348.831C593.893 348.094 594.594 347.483 595.399 347.038C596.204 346.592 597.094 346.323 598.011 346.247C598.927 346.171 599.85 346.291 600.717 346.598Z" fill="#FF8974"/>
<path d="M700.02 431.272C695.728 431.097 687.143 426.699 687.143 426.682C687.143 426.664 691.751 421.916 692.084 421.653C695.921 418.587 705.136 414.943 709.709 417.974C710.455 418.501 711.081 419.179 711.548 419.964C712.015 420.749 712.312 421.623 712.419 422.53C712.527 423.437 712.442 424.356 712.171 425.228C711.901 426.101 711.45 426.906 710.848 427.593C708.395 430.536 703.682 431.412 700.02 431.272Z" fill="#FF8974"/>
<path d="M649.896 538.775C649.896 538.775 623.843 475.965 609.267 478.698C594.69 481.432 634.233 578.808 634.233 578.808C634.233 578.808 588.4 492.347 557.145 492.347C525.889 492.347 568.603 587.918 608.181 619.77C608.181 619.77 545.687 552.423 509.228 566.982C472.768 581.541 582.146 649.799 582.146 649.799C582.146 649.799 518.601 629.773 525.889 645.244C533.177 660.714 552.975 663.447 552.975 663.447L481.143 667.091H731.154L674.897 661.625C674.897 661.625 733.238 632.507 717.611 620.681C701.983 608.855 667.608 634.329 667.608 634.329C667.608 634.329 726.984 568.804 715.526 544.223C704.068 519.643 653.014 588.829 653.014 588.829C653.014 588.829 694.694 500.546 686.302 485.076C677.91 469.606 649.896 538.775 649.896 538.775Z" fill="#C6FF00"/>
<path d="M649.896 538.775C649.896 538.775 623.843 475.965 609.267 478.698C594.69 481.432 634.233 578.808 634.233 578.808C634.233 578.808 588.4 492.347 557.145 492.347C525.889 492.347 568.603 587.918 608.181 619.77C608.181 619.77 545.687 552.423 509.228 566.982C472.768 581.541 582.146 649.799 582.146 649.799C582.146 649.799 518.601 629.773 525.889 645.244C533.177 660.714 552.975 663.447 552.975 663.447L481.143 667.091H731.154L674.897 661.625C674.897 661.625 733.238 632.507 717.611 620.681C701.983 608.855 667.608 634.329 667.608 634.329C667.608 634.329 726.984 568.804 715.526 544.223C704.068 519.643 653.014 588.829 653.014 588.829C653.014 588.829 694.694 500.546 686.302 485.076C677.91 469.606 649.896 538.775 649.896 538.775Z" fill="#FFA89C"/>
<path d="M658.235 542.068C635.301 609.783 635.301 657.7 635.301 657.7C635.301 657.7 662.387 658.734 690.525 637.903" stroke="#263238" stroke-linecap="round" stroke-linejoin="round"/>
<path d="M646.777 578.545C642.047 558.298 635.774 538.442 628.013 519.152" stroke="#263238" stroke-linecap="round" stroke-linejoin="round"/>
<path d="M579.062 538.95L637.386 625.411C637.386 625.411 676.982 592.123 690.525 573.324" stroke="#263238" stroke-linecap="round" stroke-linejoin="round"/>
<path d="M636.353 646.26C636.353 646.26 574.893 617.089 549.891 600.48" stroke="#263238" stroke-linecap="round" stroke-linejoin="round"/>
<path d="M581.182 180H393.999C386.335 180 380.123 186.212 380.123 193.876V653.215C380.123 660.879 386.335 667.091 393.999 667.091H581.182C588.846 667.091 595.058 660.879 595.058 653.215V193.876C595.058 186.212 588.846 180 581.182 180Z" fill="white" stroke="#263238" stroke-linecap="round" stroke-linejoin="round"/>
<path d="M587.875 265.27C587.117 265.27 586.391 264.969 585.856 264.433C585.32 263.898 585.019 263.172 585.019 262.414V224.133C585.076 223.412 585.402 222.739 585.933 222.248C586.464 221.757 587.16 221.484 587.884 221.484C588.607 221.484 589.304 221.757 589.835 222.248C590.366 222.739 590.692 223.412 590.748 224.133V262.344C590.755 262.726 590.686 263.105 590.545 263.46C590.403 263.814 590.193 264.137 589.925 264.41C589.658 264.682 589.339 264.899 588.987 265.046C588.635 265.194 588.257 265.27 587.875 265.27Z" fill="#263238"/>
<path d="M587.875 300.73C587.117 300.73 586.391 300.429 585.856 299.894C585.32 299.358 585.019 298.632 585.019 297.875V276.483C585.076 275.762 585.402 275.088 585.933 274.597C586.464 274.106 587.16 273.833 587.884 273.833C588.607 273.833 589.303 274.106 589.834 274.597C590.365 275.088 590.692 275.762 590.748 276.483V297.875C590.743 298.634 590.439 299.36 589.9 299.895C589.362 300.43 588.634 300.73 587.875 300.73Z" fill="#263238"/>
<path d="M564.976 180H377.793C370.129 180 363.917 186.212 363.917 193.876V653.215C363.917 660.879 370.129 667.091 377.793 667.091H564.976C572.64 667.091 578.852 660.879 578.852 653.215V193.876C578.852 186.212 572.64 180 564.976 180Z" fill="#263238" stroke="#263238" stroke-linecap="round" stroke-linejoin="round"/>
<path d="M564.538 212.429H378.231V630.211H564.538V212.429Z" fill="#FF8974"/>
<path d="M443.72 199.079H493.32" stroke="white" stroke-width="3" stroke-linecap="round" stroke-linejoin="round"/>
<path d="M464.709 644.998C464.709 648.415 462.572 651.183 459.926 651.183C457.281 651.183 455.161 648.415 455.161 644.998C455.161 641.582 457.298 638.796 459.926 638.796C462.554 638.796 464.709 641.564 464.709 644.998Z" fill="white"/>
<path d="M471.384 316.393C489.227 316.393 503.691 299.529 503.691 278.725C503.691 257.922 489.227 241.057 471.384 241.057C453.542 241.057 439.077 257.922 439.077 278.725C439.077 299.529 453.542 316.393 471.384 316.393Z" fill="white"/>
<path d="M471.384 278.252C478.158 278.252 483.648 271.844 483.648 263.938C483.648 256.033 478.158 249.625 471.384 249.625C464.611 249.625 459.12 256.033 459.12 263.938C459.12 271.844 464.611 278.252 471.384 278.252Z" fill="#263238" stroke="#263238" stroke-linecap="round" stroke-linejoin="round"/>
<path d="M471.384 282.054C459.12 282.054 449.081 291.462 449.081 303.078C449.091 304.159 449.191 305.237 449.379 306.302C452.1 309.477 455.475 312.025 459.273 313.773C463.072 315.52 467.203 316.425 471.384 316.425C475.565 316.425 479.697 315.52 483.495 313.773C487.294 312.025 490.669 309.477 493.389 306.302C493.563 305.236 493.657 304.158 493.67 303.078C493.67 291.462 483.683 282.054 471.384 282.054Z" fill="#263238" stroke="#263238" stroke-linecap="round" stroke-linejoin="round"/>
<path d="M510.664 442.8H432.105C430.025 442.718 428.064 441.814 426.651 440.286C425.239 438.758 424.49 436.732 424.571 434.653V386.158C424.571 358.213 445.595 335.472 471.384 335.472C497.174 335.472 518.18 358.248 518.18 386.158V434.618C518.225 435.649 518.066 436.679 517.712 437.648C517.358 438.618 516.817 439.508 516.119 440.268C515.421 441.028 514.58 441.642 513.644 442.077C512.708 442.511 511.695 442.757 510.664 442.8ZM439.621 426.506H503.131V386.21C503.131 367.254 488.887 351.819 471.384 351.819C453.882 351.819 439.621 367.254 439.621 386.21V426.506Z" fill="#263238"/>
<path d="M525.924 409.705H416.845V512.898H525.924V409.705Z" fill="white"/>
<path d="M487.275 480.748L479.181 461.284C480.971 459.93 482.418 458.176 483.407 456.162C484.396 454.147 484.899 451.929 484.875 449.685C484.875 441.924 479.076 435.669 471.91 435.669C464.744 435.669 458.963 441.941 458.963 449.685C458.935 451.928 459.435 454.146 460.421 456.16C461.407 458.174 462.852 459.929 464.639 461.284L456.562 480.748H487.275Z" fill="#263238" stroke="#263238" stroke-linecap="round" stroke-linejoin="round"/>
<path d="M438.149 605.631C438.317 605.754 438.519 605.821 438.727 605.824C438.876 605.823 439.023 605.786 439.154 605.716C439.285 605.646 439.397 605.544 439.48 605.421L564.538 435.319V432.095L438.009 604.299C437.93 604.396 437.872 604.507 437.837 604.626C437.801 604.746 437.79 604.871 437.803 604.994C437.816 605.118 437.853 605.238 437.913 605.347C437.972 605.456 438.052 605.553 438.149 605.631Z" fill="white"/>
<path d="M539.379 273.715C539.305 273.815 539.251 273.93 539.221 274.052C539.192 274.174 539.186 274.3 539.206 274.424C539.225 274.548 539.269 274.667 539.335 274.774C539.401 274.881 539.488 274.973 539.59 275.046C539.795 275.192 540.05 275.252 540.298 275.213C540.547 275.173 540.771 275.038 540.921 274.836L564.538 242.722V239.568L539.379 273.715Z" fill="white"/>
<path d="M378.231 496.166L532.617 286.224C532.766 286.019 532.827 285.764 532.788 285.514C532.748 285.265 532.611 285.041 532.407 284.892C532.202 284.744 531.947 284.682 531.697 284.722C531.448 284.761 531.224 284.898 531.075 285.103L378.301 492.942L378.231 496.166Z" fill="white"/>
<path d="M423.642 626.339C423.792 626.337 423.938 626.301 424.072 626.234C424.205 626.167 424.322 626.072 424.413 625.954L433.173 614.11C433.248 614.009 433.302 613.895 433.331 613.773C433.361 613.651 433.366 613.525 433.347 613.401C433.327 613.277 433.283 613.158 433.217 613.051C433.152 612.944 433.065 612.852 432.963 612.779C432.758 612.633 432.503 612.573 432.254 612.612C432.006 612.652 431.782 612.787 431.632 612.989L422.872 624.815C422.796 624.915 422.741 625.029 422.71 625.15C422.679 625.271 422.672 625.397 422.69 625.521C422.708 625.645 422.75 625.764 422.814 625.871C422.879 625.979 422.964 626.072 423.064 626.147C423.228 626.277 423.433 626.345 423.642 626.339Z" fill="white"/>
<path d="M564.538 469.378L461.871 609.03C461.767 609.171 461.704 609.339 461.69 609.514C461.676 609.689 461.711 609.865 461.791 610.021C461.871 610.178 461.993 610.309 462.143 610.4C462.293 610.491 462.466 610.538 462.642 610.536C462.792 610.539 462.94 610.506 463.075 610.439C463.209 610.371 463.325 610.273 463.413 610.151L564.538 472.584V469.378Z" fill="white"/>
<path d="M203.959 273.101C205.696 269.252 206.535 265.058 206.412 260.837C206.412 253.006 196.934 248.468 185.791 247.224C174.648 245.98 169.708 250.518 171.354 253.409C173.066 255.793 175.155 257.882 177.539 259.593C177.539 259.593 166.396 253.409 158.968 258.367C151.539 263.325 162.279 261.258 160.212 266.198C158.144 271.139 146.599 269.089 143.708 282.282C140.817 295.474 149.069 308.684 141.64 314.466C134.212 320.248 111.856 312.399 105.339 326.835C98.8216 341.272 108.072 347.684 92.4093 356.759C76.7464 365.835 65.3234 374.7 69.861 396.968C74.3987 419.236 89.2557 427.032 118.549 419.166C147.843 411.299 145.775 393.586 155.341 375.366C164.907 357.145 179.694 360.929 184.232 350.61C188.769 340.291 182.988 327.921 183.408 318.426C183.829 308.93 193.307 306.88 197.021 295.65C200.735 284.419 203.959 273.101 203.959 273.101Z" fill="#263238" stroke="#263238" stroke-linecap="round" stroke-linejoin="round"/>
<path d="M73.2774 396.547C72.5091 398.098 72.1189 399.809 72.1386 401.54" stroke="white" stroke-width="0.5" stroke-linecap="round" stroke-linejoin="round"/>
<path d="M188.121 264.919C188.121 264.919 182.97 258.963 192.886 261.731C205.378 265.235 190.714 279.689 185.073 282.597C173.755 288.396 158.793 286.539 150.033 297.086C142.078 306.617 152.818 316.551 148.053 324.102C143.287 331.653 124.208 327.273 117.866 336.366C111.524 345.459 129.376 364.976 111.103 375.698C97.893 383.46 83.4215 386.438 76.431 392.588" stroke="white" stroke-width="0.5" stroke-linecap="round" stroke-linejoin="round"/>
<path d="M158.495 300.17C157.412 302.703 157.083 305.496 157.549 308.211C159.125 314.957 168.271 327.676 159.931 334.824C151.592 341.972 137.278 341.569 134.913 349.944C132.548 358.319 137.296 381.322 129.359 391.992C121.422 402.662 105.917 401.926 97.5777 409.074C89.2381 416.222 90.4295 420.199 90.4295 420.199" stroke="white" stroke-width="0.5" stroke-linecap="round" stroke-linejoin="round"/>
<path d="M162.7 292.321C161.977 293.341 161.311 294.4 160.702 295.492" stroke="white" stroke-width="0.5" stroke-linecap="round" stroke-linejoin="round"/>
<path d="M209.303 395.917L211.318 411.685C211.318 411.685 221.83 422.197 229.556 428.696C237.282 435.196 257.08 448.95 257.08 448.95L247.041 451.805C247.041 451.805 214.226 432.358 207.743 430.781C201.261 429.205 196.408 419.849 194.393 417.011C192.378 414.172 204.029 393.078 209.303 395.917Z" fill="white" stroke="#263238" stroke-linecap="round" stroke-linejoin="round"/>
<path d="M229.346 652.462C229.346 652.462 239.262 660.836 243.362 663.64C247.461 666.443 252.244 667.704 251.491 669.229C250.738 670.753 248.688 672.277 239.034 670.981C229.381 669.684 226.595 666.408 224.808 665.9C223.021 665.392 218.711 666.671 215.417 664.638C212.123 662.606 217.344 650.5 217.344 650.5C218.791 652.191 220.79 653.316 222.986 653.675C225.183 654.034 227.436 653.604 229.346 652.462Z" fill="white" stroke="#263238" stroke-linecap="round" stroke-linejoin="round"/>
<path d="M251.456 669.228C251.464 669.147 251.464 669.065 251.456 668.983C245.882 669.495 240.262 668.966 234.882 667.424C228.645 665.952 226.805 662.641 220.866 662.641C218.535 662.662 216.218 662.283 214.016 661.52C213.952 662.104 214.032 662.695 214.249 663.242C214.465 663.789 214.812 664.274 215.26 664.656C218.553 666.688 222.881 665.409 224.65 665.917C226.42 666.425 229.223 669.737 238.876 670.998C248.53 672.259 250.685 670.753 251.456 669.228Z" fill="white" stroke="#263238" stroke-linecap="round" stroke-linejoin="round"/>
<path d="M177.434 313.853C177.434 313.853 179.344 326.712 176.891 331.898C174.438 337.084 166.764 337.645 160.212 338.749C153.659 339.852 138.61 345.582 140.239 360.351C141.868 375.12 160.755 407.112 160.755 416.135C160.755 425.157 155.008 429.8 148.719 447.303C142.429 464.805 143.252 497.357 145.215 518.416C146.653 532.315 149.398 546.047 153.414 559.431C153.414 559.431 137.646 584.87 130.638 595.802C123.63 606.735 99.1019 654.336 99.1019 654.336C99.1019 654.336 99.1019 655.966 102.921 657.069C105.608 657.723 108.388 657.907 111.138 657.613C111.138 657.613 158.162 601.005 166.922 591.44C175.682 581.874 183.881 565.16 184.967 557.521C186.054 549.882 184.705 503.104 184.705 503.104C184.705 503.104 194.533 526.616 202.225 538.652C206.89 546.018 211.17 553.62 215.049 561.428C213.972 571.327 213.972 581.313 215.049 591.212C216.959 604.877 215.347 648.783 217.257 652.339C219.166 655.896 226.577 654.406 228.224 652.777C229.871 651.148 230.642 640.513 230.642 640.513C230.642 640.513 233.918 607.225 235.898 591.562C237.878 575.899 241.154 562.567 240.015 559.01C238.877 555.454 232.079 517.435 226.875 499.442C221.672 481.449 205.851 447.758 202.347 439.016C198.843 430.273 196.864 422.319 197.424 419.586C197.985 416.853 208.637 400.454 211.44 396.074C213.038 393.105 213.92 389.803 214.014 386.432C214.108 383.062 213.413 379.716 211.983 376.662C208.707 369.549 211.983 359.965 211.44 354.236C210.897 348.507 202.417 346.02 198.037 343.847C193.657 341.675 192.01 336.734 192.01 332.634C192.278 329.181 193.113 325.795 194.481 322.613C194.481 322.613 180.99 313.853 177.434 313.853Z" fill="white" stroke="#263238" stroke-linecap="round" stroke-linejoin="round"/>
<path d="M210.582 372.352C209.141 368.691 207.941 364.94 206.99 361.122" stroke="#263238" stroke-linecap="round" stroke-linejoin="round"/>
<path d="M175.069 402.802C175.069 402.802 180.009 403.888 189.908 398.948" stroke="#263238" stroke-linecap="round" stroke-linejoin="round"/>
<path d="M226.928 499.267C221.97 482.027 207.27 450.544 202.873 440.155C181.849 448.039 162.191 441.311 152.958 436.966C151.627 439.874 150.19 443.238 148.719 447.303C142.429 464.823 143.252 497.357 145.215 518.416C146.653 532.315 149.398 546.047 153.414 559.431C153.414 559.431 137.646 584.87 130.638 595.802C123.63 606.735 99.1019 654.337 99.1019 654.337C99.1019 654.337 99.1019 655.966 102.921 657.07C105.608 657.723 108.388 657.907 111.138 657.613C111.138 657.613 158.162 601.006 166.922 591.44C175.682 581.874 183.881 565.16 184.967 557.521C186.054 549.882 184.705 503.104 184.705 503.104C184.705 503.104 194.533 526.616 202.225 538.652C206.89 546.018 211.17 553.62 215.049 561.428C213.972 571.327 213.972 581.313 215.049 591.212C216.959 604.878 215.347 648.783 217.257 652.339C219.166 655.896 226.577 654.407 228.224 652.777C229.871 651.148 230.642 640.513 230.642 640.513C230.642 640.513 233.918 607.225 235.898 591.562C237.878 575.9 241.154 562.567 240.015 559.01C238.877 555.454 232.131 517.313 226.928 499.267Z" fill="#263238" stroke="#263238" stroke-linecap="round" stroke-linejoin="round"/>
<path d="M334.045 481.905V478.331H337.041V450.264H334.045H304.471H301.475V478.331H304.471V481.905H301.458V488.422H313.004V486.232H325.513V488.422H337.059V481.905H334.045Z" fill="#FF8974" stroke="#263238" stroke-linecap="round" stroke-linejoin="round"/>
<path d="M142.902 441.871H349.217C350.045 441.871 350.838 442.2 351.423 442.785C352.007 443.37 352.336 444.163 352.336 444.99V451.262C352.336 452.089 352.007 452.882 351.423 453.467C350.838 454.052 350.045 454.381 349.217 454.381H142.902V441.854V441.871Z" fill="#FF8974" stroke="#263238" stroke-linecap="round" stroke-linejoin="round"/>
<path d="M290.981 439.997H278.419C277.461 439.997 276.685 440.773 276.685 441.731V454.538C276.685 455.496 277.461 456.273 278.419 456.273H290.981C291.939 456.273 292.715 455.496 292.715 454.538V441.731C292.715 440.773 291.939 439.997 290.981 439.997Z" fill="#FF8974" stroke="#263238" stroke-linecap="round" stroke-linejoin="round"/>
<path d="M149.357 453.403C152.264 435.652 140.23 418.905 122.479 415.998C104.727 413.091 87.9806 425.125 85.0737 442.876C82.1668 460.628 94.2006 477.374 111.952 480.281C129.703 483.188 146.45 471.154 149.357 453.403Z" fill="#FF8974" stroke="#263238" stroke-linecap="round" stroke-linejoin="round"/>
<path d="M123.91 448.056C125.798 447.152 127.401 445.745 128.541 443.989C129.682 442.233 130.316 440.197 130.375 438.105C130.375 431.71 124.488 426.524 117.218 426.524C109.947 426.524 104.06 431.78 104.06 438.105C104.115 440.198 104.748 442.236 105.889 443.992C107.03 445.749 108.634 447.155 110.525 448.056C108.635 448.963 107.032 450.374 105.892 452.132C104.751 453.891 104.118 455.93 104.06 458.025C104.06 464.42 109.947 469.606 117.218 469.606C124.488 469.606 130.375 464.35 130.375 458.025C130.314 455.931 129.678 453.893 128.538 452.135C127.398 450.377 125.797 448.966 123.91 448.056Z" fill="white" stroke="#263238" stroke-linecap="round" stroke-linejoin="round"/>
<path d="M250.65 454.661C250.65 454.661 260.847 458.971 264 458.971C267.154 458.971 270.798 455.8 272.602 451.963C274.407 448.126 274.354 446.304 273.286 447.215L271.026 448.967C271.026 448.967 272.778 445.13 270.798 445.586C269.427 446.042 268.289 447.017 267.627 448.301C267.627 448.301 267.399 444.902 265.594 446.549C264.4 447.631 263.336 448.848 262.423 450.176C262.423 450.176 262.196 445.884 261.057 447.005C259.918 448.126 255.643 454.241 255.643 454.241L250.65 454.661Z" fill="white" stroke="#263238" stroke-linecap="round" stroke-linejoin="round"/>
<path d="M262.423 450.141C262.423 450.141 261.74 455.572 258.359 456.483L262.423 450.141Z" fill="white"/>
<path d="M262.423 450.141C262.423 450.141 261.74 455.572 258.359 456.483" stroke="#263238" stroke-linecap="round" stroke-linejoin="round"/>
<path d="M267.627 448.336C267.627 448.336 265.875 456.921 263.107 458.288L267.627 448.336Z" fill="white"/>
<path d="M267.627 448.336C267.627 448.336 265.875 456.921 263.107 458.288" stroke="#263238" stroke-linecap="round" stroke-linejoin="round"/>
<path d="M271.026 449.002C270.122 452.135 268.907 455.169 267.399 458.06L271.026 449.002Z" fill="white"/>
<path d="M271.026 449.002C270.122 452.135 268.907 455.169 267.399 458.06" stroke="#263238" stroke-linecap="round" stroke-linejoin="round"/>
<path d="M197.389 343.321C195.625 342.13 194.195 340.506 193.238 338.604C192.281 336.702 191.828 334.586 191.923 332.459C192.237 329.06 193.101 325.735 194.481 322.613C194.481 322.613 181.078 313.853 177.521 313.853C177.521 313.853 179.431 326.712 176.978 331.898C176.174 333.511 174.863 334.816 173.247 335.613C176.486 344.333 180.875 352.582 186.299 360.141C191.222 366.325 193.622 353.29 197.389 343.321Z" fill="white" stroke="#263238" stroke-linecap="round" stroke-linejoin="round"/>
<path d="M156.024 340.518C152.681 341.089 149.516 342.429 146.78 344.433C144.043 346.437 141.81 349.049 140.256 352.064C134.86 362.471 111.278 409.705 113.293 412.526C124.751 428.644 166.431 440.242 170.671 444.482C174.91 448.915 179.562 452.934 184.564 456.483C188.804 459.181 197.267 458.025 198.808 457.254C200.35 456.483 201.506 453.014 198.808 453.014C197.777 453.028 196.773 452.687 195.963 452.05C195.153 451.412 194.587 450.515 194.358 449.51C193.973 447.968 198.598 451.052 200.911 449.896C203.223 448.739 195.742 444.517 193.43 442.59C191.117 440.663 189.19 437.982 186.106 437.982C183.023 437.982 177.224 437.982 177.224 437.982C177.224 437.982 163.032 427.698 154.448 420.042C147.768 414.014 140.481 408.695 132.705 404.168L158.722 361.367" fill="white"/>
<path d="M156.024 340.518C152.681 341.089 149.516 342.429 146.78 344.433C144.043 346.437 141.81 349.049 140.256 352.064C134.86 362.471 111.278 409.705 113.293 412.526C124.751 428.644 166.431 440.242 170.671 444.482C174.91 448.915 179.562 452.934 184.564 456.483C188.804 459.181 197.267 458.025 198.808 457.254C200.35 456.483 201.506 453.014 198.808 453.014C197.777 453.028 196.773 452.687 195.963 452.05C195.153 451.412 194.587 450.515 194.358 449.51C193.973 447.968 198.598 451.052 200.911 449.896C203.223 448.739 195.742 444.517 193.43 442.59C191.117 440.663 189.19 437.982 186.106 437.982C183.023 437.982 177.224 437.982 177.224 437.982C177.224 437.982 163.032 427.698 154.448 420.042C147.768 414.014 140.481 408.695 132.705 404.168L158.722 361.367" stroke="#263238" stroke-linecap="round" stroke-linejoin="round"/>
<path d="M193.412 442.607C191.099 440.68 189.172 438 186.089 438C183.005 438 177.206 438 177.206 438C177.206 438 163.015 427.715 154.43 420.059C147.75 414.032 140.464 408.712 132.688 404.186L143.095 387.051C137.774 383.831 131.688 382.095 125.47 382.023C118.462 396.635 112.172 411.071 113.206 412.596C124.664 428.714 166.344 440.312 170.584 444.552C174.822 448.986 179.474 453.004 184.477 456.553C188.717 459.251 197.179 458.095 198.721 457.324C200.262 456.553 201.419 453.084 198.721 453.084C197.69 453.098 196.686 452.757 195.876 452.12C195.066 451.482 194.499 450.586 194.271 449.58C193.885 448.039 198.51 451.122 200.823 449.966C203.136 448.809 195.725 444.552 193.412 442.607Z" fill="white" stroke="#263238" stroke-linecap="round" stroke-linejoin="round"/>
<path d="M207.516 294.984C206.149 292.251 206.149 290.061 206.692 286.224C207.235 282.387 203.959 273.084 203.959 273.084C200.613 278.865 190.942 282.299 186.667 283.596C181.954 285.032 188.839 288.291 188.104 292.654C187.368 297.016 177.959 299.539 177.959 299.539C177.959 299.539 175.209 293.88 171.389 293.88C167.57 293.88 164.854 302.64 167.027 307.283C167.593 308.569 168.579 309.625 169.824 310.277C171.068 310.93 172.497 311.14 173.877 310.874C173.877 310.874 173.614 319.091 178.8 321.544C184.334 324.184 190.107 326.29 196.04 327.834C199.316 328.377 202.593 326.748 203.959 321.824C205.028 316.863 205.76 311.835 206.149 306.775C208.443 305.274 210.554 303.51 212.439 301.519C213.753 299.627 208.882 297.717 207.516 294.984Z" fill="white" stroke="#263238" stroke-linecap="round" stroke-linejoin="round"/>
<path d="M202.19 295.106C202.19 296.613 201.699 297.822 201.103 297.822C200.508 297.822 200.017 296.613 200.017 295.106C200.017 293.6 200.508 292.391 201.103 292.391C201.699 292.391 202.19 293.6 202.19 295.106Z" fill="#263238"/>
<path d="M197.477 290.586C197.477 290.586 200.385 287.31 202.558 288.046" stroke="#263238" stroke-linecap="round" stroke-linejoin="round"/>
<path d="M202.558 313.047C201.245 313.443 199.851 313.49 198.514 313.182C197.178 312.875 195.945 312.225 194.936 311.295" stroke="#263238" stroke-linecap="round" stroke-linejoin="round"/>
<path d="M99.2246 654.336C99.2246 654.336 92.6896 667.441 92.9349 669.228C93.1802 671.015 106.145 680.406 112.207 683.7C118.269 686.994 129.236 687.519 128.465 682.947C127.695 678.374 117.288 675.325 114.747 668.458C113.394 664.905 112.225 661.285 111.243 657.613C107.008 657.676 102.842 656.54 99.2246 654.336Z" fill="white" stroke="#263238" stroke-linecap="round" stroke-linejoin="round"/>
<path d="M128.5 683.017C123.836 683.642 119.089 682.969 114.782 681.072C105.374 676.99 96.2637 668.65 93.7583 666.285C93.3133 667.23 93.0291 668.243 92.9174 669.281C93.1802 671.033 106.127 680.459 112.189 683.753C118.251 687.046 129.131 687.502 128.5 683.017Z" fill="white" stroke="#263238" stroke-linecap="round" stroke-linejoin="round"/>
</svg>
