<svg width="56" height="56" viewBox="0 0 56 56" fill="none" xmlns="http://www.w3.org/2000/svg">
<path d="M24.2673 17.7081C22.7236 17.7081 21.4673 18.9625 21.4673 20.5041H23.334C23.334 19.9906 23.7521 19.5721 24.2673 19.5721C24.7825 19.5721 25.2006 19.9906 25.2006 20.5041H27.0673C27.0673 18.9625 25.811 17.7081 24.2673 17.7081Z" fill="#36C2AE"/>
<path d="M31.7331 17.7081C30.1894 17.7081 28.9331 18.9625 28.9331 20.5041H30.7998C30.7998 19.9906 31.2179 19.5721 31.7331 19.5721C32.2483 19.5721 32.6664 19.9906 32.6664 20.5041H34.5331C34.5331 18.9625 33.2768 17.7081 31.7331 17.7081Z" fill="#36C2AE"/>
<path d="M50.4 54.0563V41.9403C50.4 34.2316 44.1196 27.9602 36.4 27.9602H35.3836C35.7159 27.6685 36.0285 27.3572 36.3244 27.0282H37.3333C39.9065 27.0282 42 24.9377 42 22.3681V20.726C43.1247 19.9729 43.8667 18.6923 43.8667 17.2421C43.8667 15.7863 43.1191 14.5039 41.9888 13.7517C41.8647 6.14938 35.6431 0 28 0C20.3569 0 14.1353 6.14938 14.0112 13.7517C12.8809 14.5039 12.1333 15.7863 12.1333 17.2421C12.1333 19.5544 14.0177 21.4361 16.3333 21.4361H16.9689C17.4057 24.0187 18.7273 26.2993 20.6173 27.9602H19.6C11.8804 27.9602 5.6 34.2316 5.6 41.9403V54.0563H0V55.9204H6.53333H11.2H44.8H49.4667H56V54.0563H50.4ZM40.1333 22.3681C40.1333 23.782 39.0731 24.9414 37.7076 25.1259C38.3544 24.0029 38.808 22.7587 39.0311 21.4361H39.6667C39.8263 21.4361 39.9784 21.4063 40.1333 21.3886V22.3681ZM42 17.2421C42 18.5264 40.9537 19.5721 39.6667 19.5721H39.2V14.9121H39.6667C40.9537 14.9121 42 15.9578 42 17.2421ZM16.8 19.5721H16.3333C15.0463 19.5721 14 18.5264 14 17.2421C14 15.9578 15.0463 14.9121 16.3333 14.9121H16.8V19.5721ZM16.3333 13.0481C16.1887 13.0481 16.0524 13.076 15.9115 13.091C16.3707 6.82508 21.6104 1.86401 28 1.86401C34.3896 1.86401 39.6293 6.82508 40.0885 13.091C39.9476 13.076 39.8113 13.0481 39.6667 13.0481H39.0311C38.1388 7.76734 33.5384 3.72802 28 3.72802C22.4616 3.72802 17.8612 7.76734 16.9689 13.0481H16.3333ZM37.3324 14.8888C30.5965 14.6521 26.1333 11.9017 26.1333 9.32006C26.1333 8.80559 25.7161 8.38805 25.2 8.38805C24.6839 8.38805 24.2667 8.80559 24.2667 9.32006C24.2667 11.6491 21.8549 13.5793 18.7208 13.9214C19.2183 9.24643 23.1896 5.59204 28 5.59204C33.138 5.59204 37.3193 9.7609 37.3324 14.8888ZM18.6667 19.5721V15.7919C21.5815 15.5393 24.0548 14.1357 25.2896 12.1701C27.2421 14.7537 31.8052 16.572 37.3333 16.7575V19.5721C37.3333 21.6719 36.6259 23.604 35.4489 25.1642H28V27.0282H33.5757C33.04 27.4289 32.4623 27.7738 31.8463 28.0534C29.3972 29.1643 26.6019 29.1643 24.1519 28.0534C20.9225 26.5864 18.6667 23.3412 18.6667 19.5721ZM25.1151 30.3666C26.0372 30.6127 27.0013 30.7562 28 30.7562C28.9987 30.7562 29.9628 30.6127 30.8849 30.3666L28 36.1283L25.1151 30.3666ZM26.4899 37.2802H24.8435L21.1101 29.8242H22.7565L26.4899 37.2802ZM33.2435 29.8242H34.8899L31.1565 37.2802H29.5101L33.2435 29.8242ZM10.2667 41.9403V54.0563H7.46667V41.9403C7.46667 35.4488 12.6093 30.1495 19.0372 29.8531L22.7565 37.2802H14.9333C12.3601 37.2802 10.2667 39.3707 10.2667 41.9403ZM43.8667 54.0563H12.1333V41.9403C12.1333 40.3987 13.3896 39.1443 14.9333 39.1443H24.2667H28H31.7333H41.0667C42.6104 39.1443 43.8667 40.3987 43.8667 41.9403V54.0563ZM48.5333 54.0563H45.7333V41.9403C45.7333 39.3707 43.6399 37.2802 41.0667 37.2802H33.2435L36.9628 29.8531C43.3907 30.1495 48.5333 35.4488 48.5333 41.9403V54.0563Z" fill="#36C2AE"/>
<path d="M42.0005 45.6684H40.1338V52.1924H42.0005V45.6684Z" fill="#36C2AE"/>
<path d="M42.0005 41.9403H40.1338V43.8043H42.0005V41.9403Z" fill="#36C2AE"/>
</svg>
