<svg width="55" height="55" viewBox="0 0 55 55" fill="none" xmlns="http://www.w3.org/2000/svg">
<path d="M53.7498 0H1.25003C0.5591 0 0 0.558304 0 1.24826V34.9501C0 37.7037 2.24237 39.9431 5.00002 39.9431H19.5161L15.0646 53.2785C14.8461 53.9331 15.2001 54.64 15.8545 54.8571C15.9863 54.901 16.1193 54.9217 16.25 54.9217C16.7737 54.9217 17.2607 54.5913 17.4353 54.0684L22.1505 39.9431H26.2499V53.6734C26.2499 54.3634 26.809 54.9217 27.4999 54.9217C28.1909 54.9217 28.75 54.3634 28.75 53.6734V39.9429H32.8495L37.5647 54.0682C37.7393 54.5912 38.2263 54.9216 38.75 54.9216C38.8807 54.9216 39.0137 54.9008 39.1455 54.857C39.7998 54.64 40.1538 53.933 39.9354 53.2783L35.4839 39.9429H50C52.7575 39.9429 55 37.7037 55 34.95V1.24814C54.9998 0.558304 54.4408 0 53.7498 0ZM52.4998 34.9501C52.4998 36.3263 51.378 37.4465 49.9999 37.4465H5.00002C3.6219 37.4465 2.50007 36.3263 2.50007 34.9501V2.4964H52.4998V34.9501Z" fill="#811AFF"/>
<path d="M8.75052 32.4534H16.2505C16.9414 32.4534 17.5005 31.8951 17.5005 31.2051V21.2194C17.5005 20.5295 16.9414 19.9712 16.2505 19.9712H8.75052C8.05959 19.9712 7.50049 20.5295 7.50049 21.2194V31.2051C7.50049 31.8951 8.05959 32.4534 8.75052 32.4534ZM10.0004 22.4677H15.0005V29.957H10.0004V22.4677Z" fill="#811AFF"/>
<path d="M23.75 32.4533H31.25C31.9409 32.4533 32.5 31.895 32.5 31.205V13.73C32.5 13.0401 31.9409 12.4818 31.25 12.4818H23.75C23.0591 12.4818 22.5 13.0401 22.5 13.73V31.205C22.5 31.895 23.0591 32.4533 23.75 32.4533ZM25 14.9783H30V29.9569H25V14.9783Z" fill="#811AFF"/>
<path d="M38.75 32.4535H46.25C46.9409 32.4535 47.5 31.8952 47.5 31.2053V8.73733C47.5 8.04738 46.9409 7.48907 46.25 7.48907H38.75C38.0591 7.48919 37.5 8.0475 37.5 8.73745V31.2054C37.5 31.8952 38.0591 32.4535 38.75 32.4535ZM40 9.98559H45V29.9571H40V9.98559Z" fill="#811AFF"/>
</svg>
