<svg width="22" height="23" viewBox="0 0 22 23" fill="none" xmlns="http://www.w3.org/2000/svg">
<path d="M19.8516 7.59277C19.9646 7.59277 20.0754 7.54686 20.1553 7.46701C20.2353 7.38724 20.2812 7.27654 20.2812 7.1637C20.2812 7.05085 20.2353 6.94015 20.1553 6.86034C20.0754 6.78053 19.9646 6.73462 19.8516 6.73462C19.7386 6.73462 19.6277 6.78049 19.5478 6.86034C19.4679 6.94019 19.4219 7.05085 19.4219 7.1637C19.4219 7.27654 19.4678 7.38724 19.5478 7.46701C19.6277 7.54686 19.7386 7.59277 19.8516 7.59277Z" fill="#5DC8AC"/>
<path d="M8.44341 19.2494H8.43701C8.19974 19.2494 8.00732 19.4415 8.00732 19.6785C8.00732 19.9154 8.19974 20.1075 8.43701 20.1075H8.44341C8.68069 20.1075 8.8731 19.9154 8.8731 19.6785C8.8731 19.4415 8.68069 19.2494 8.44341 19.2494Z" fill="#5DC8AC"/>
<path d="M22 17.444V3.21618C22 2.5064 21.4217 1.92895 20.7109 1.92895H19.2391V1.67151C19.2391 0.867074 18.5837 0.212646 17.7781 0.212646C16.9726 0.212646 16.3172 0.867074 16.3172 1.67151V1.92895H12.4555V1.67151C12.4555 0.867074 11.8001 0.212646 10.9945 0.212646C10.189 0.212646 9.53361 0.867074 9.53361 1.67151V1.92895H5.67188V1.67151C5.67188 0.867074 5.01652 0.212646 4.21094 0.212646C3.40536 0.212646 2.75 0.867074 2.75 1.67151V1.92895H1.28906C0.578273 1.92895 0 2.5064 0 3.21618V20.8941C0 21.6039 0.578273 22.1814 1.28906 22.1814H17.2559C17.3745 22.1814 17.4818 22.1333 17.5596 22.0558C17.5596 22.0557 17.5597 22.0557 17.5597 22.0557L21.8741 17.7474C21.9519 17.6697 22 17.5624 22 17.444ZM17.1766 1.67151C17.1766 1.34026 17.4464 1.0708 17.7781 1.0708C18.1099 1.0708 18.3797 1.34026 18.3797 1.67151V3.77398C18.3797 4.10523 18.1099 4.37469 17.7781 4.37469C17.4464 4.37469 17.1766 4.10523 17.1766 3.77398V1.67151ZM10.393 1.67151C10.393 1.34026 10.6628 1.0708 10.9945 1.0708C11.3263 1.0708 11.5961 1.34026 11.5961 1.67151V3.77398C11.5961 4.10523 11.3263 4.37469 10.9945 4.37469C10.6628 4.37469 10.393 4.10523 10.393 3.77398V1.67151ZM3.60938 1.67151C3.60938 1.34026 3.87922 1.0708 4.21094 1.0708C4.54266 1.0708 4.8125 1.34026 4.8125 1.67151V3.77398C4.8125 4.10523 4.54266 4.37469 4.21094 4.37469C3.87922 4.37469 3.60938 4.10523 3.60938 3.77398V1.67151ZM0.859375 20.8941V20.1075H6.72461C6.96188 20.1075 7.1543 19.9154 7.1543 19.6784C7.1543 19.4415 6.96188 19.2494 6.72461 19.2494H0.859375V7.59276H18.1328C18.3701 7.59276 18.5625 7.40062 18.5625 7.16368C18.5625 6.92675 18.3701 6.73461 18.1328 6.73461H0.859375V3.21618C0.859375 2.97959 1.05213 2.78711 1.28906 2.78711H2.75V3.77398C2.75 4.57841 3.40536 5.23284 4.21094 5.23284C5.01652 5.23284 5.67188 4.57841 5.67188 3.77398V2.78711H9.53361V3.77398C9.53361 4.57841 10.189 5.23284 10.9945 5.23284C11.8001 5.23284 12.4555 4.57841 12.4555 3.77398V2.78711H16.3172V3.77398C16.3172 4.57841 16.9726 5.23284 17.7781 5.23284C18.5837 5.23284 19.2391 4.57841 19.2391 3.77398V2.78711H20.7109C20.9479 2.78711 21.1406 2.97959 21.1406 3.21618V17.0149H18.1152C17.4044 17.0149 16.8262 17.5923 16.8262 18.3021V21.3232H1.28906C1.05213 21.3232 0.859375 21.1307 0.859375 20.8941ZM17.6856 20.7164V18.3021C17.6856 18.0655 17.8783 17.873 18.1152 17.873H20.533L17.6856 20.7164Z" fill="#5DC8AC"/>
<path d="M8.42451 15.2524V13.7715V12.2906C8.42451 11.8296 8.04888 11.4545 7.58718 11.4545H5.72607C5.4888 11.4545 5.29639 11.6466 5.29639 11.8835C5.29639 12.1205 5.4888 12.3126 5.72607 12.3126H7.56514V13.3424H5.72607C5.4888 13.3424 5.29639 13.5345 5.29639 13.7715C5.29639 14.0084 5.4888 14.2006 5.72607 14.2006H7.56514V15.2303H5.72607C5.4888 15.2303 5.29639 15.4225 5.29639 15.6594C5.29639 15.8964 5.4888 16.0885 5.72607 16.0885H7.58718C8.04884 16.0885 8.42451 15.7134 8.42451 15.2524Z" fill="#5DC8AC"/>
<path d="M12.1542 12.3126C12.3915 12.3126 12.5839 12.1205 12.5839 11.8835C12.5839 11.6466 12.3915 11.4545 12.1542 11.4545H10.2931C9.83144 11.4545 9.45581 11.8296 9.45581 12.2906V13.7715V15.2524C9.45581 15.7134 9.83144 16.0885 10.2931 16.0885H11.7466C12.2083 16.0885 12.5839 15.7134 12.5839 15.2524V14.1786C12.5839 13.7175 12.2083 13.3424 11.7466 13.3424H11.1144H10.3152V12.3127H12.1542V12.3126ZM11.1144 14.2006H11.7246V15.2303H10.3152V14.2006H11.1144Z" fill="#5DC8AC"/>
<path d="M15.9058 13.3424H15.1791H14.4744V12.3126H16.3135C16.5507 12.3126 16.7432 12.1205 16.7432 11.8835C16.7432 11.6466 16.5507 11.4545 16.3135 11.4545H14.4524C13.9907 11.4545 13.615 11.8296 13.615 12.2906V13.3644C13.615 13.8254 13.9907 14.2005 14.4524 14.2005H15.1791H15.8837V15.2303H14.0447C13.8074 15.2303 13.615 15.4224 13.615 15.6594C13.615 15.8963 13.8074 16.0885 14.0447 16.0885H15.9058C16.3675 16.0885 16.7431 15.7134 16.7431 15.2523V14.1785C16.7431 13.7175 16.3675 13.3424 15.9058 13.3424Z" fill="#5DC8AC"/>
</svg>
