<svg width="70" height="70" viewBox="0 0 70 70" fill="none" xmlns="http://www.w3.org/2000/svg">
<path d="M61.9768 0H8.01888C3.59603 0 0 3.59603 0 8.01888V47.3914C0 51.8143 3.59603 55.4103 8.01888 55.4103H11.663V67.8083C11.663 68.692 12.1967 69.4882 13.0148 69.8294C13.286 69.9431 13.5704 69.9956 13.8548 69.9956C14.4235 69.9956 14.9834 69.7725 15.4034 69.3569L29.3457 55.4147H61.9811C66.404 55.4147 70 51.8186 70 47.3958V8.02325C69.9956 3.59602 66.3996 0 61.9768 0ZM55.4147 23.3304C55.3753 23.3304 55.3403 23.3217 55.3053 23.3173L50.8081 33.8123C51.8493 34.8709 52.4967 36.319 52.4967 37.9158C52.4967 41.1312 49.8806 43.7473 46.6652 43.7473C43.4498 43.7473 40.8337 41.1312 40.8337 37.9158C40.8337 37.5133 40.8731 37.1239 40.9518 36.7433L32.4517 31.0606C31.5155 31.7036 30.3825 32.0799 29.1663 32.0799C28.1339 32.0799 27.1802 31.7868 26.3359 31.3143L20.1456 36.2534C20.3031 36.7827 20.4125 37.3295 20.4125 37.9114C20.4125 41.1268 17.7964 43.7429 14.581 43.7429C11.3655 43.7429 8.74945 41.1312 8.74945 37.9158C8.74945 34.7003 11.3655 32.0842 14.581 32.0842C15.6134 32.0842 16.5671 32.3774 17.4114 32.8498L23.6017 27.9108C23.4442 27.3814 23.3348 26.8346 23.3348 26.2527C23.3348 23.0373 25.9509 20.4212 29.1663 20.4212C32.3817 20.4212 34.9978 23.0329 34.9978 26.2484C34.9978 26.6508 34.9584 27.0402 34.8797 27.4208L43.3754 33.1036C44.3116 32.4605 45.4447 32.0842 46.6608 32.0842C46.7046 32.0842 46.7396 32.0974 46.7833 32.0974L51.2762 21.6111C50.2262 20.5568 49.5788 19.1044 49.5788 17.5033C49.5788 14.2879 52.1949 11.6718 55.4103 11.6718C58.6301 11.6674 61.2462 14.2835 61.2462 17.4989C61.2462 20.7143 58.6301 23.3304 55.4147 23.3304Z" fill="#FF8974"/>
</svg>
