<svg width="50" height="45" viewBox="0 0 50 45" fill="none" xmlns="http://www.w3.org/2000/svg">
<path d="M38.637 6.32545C38.4574 6.14254 38.4574 5.85835 38.637 5.67543L41.5058 2.75182C41.8044 2.44755 41.5778 1.95068 41.1405 1.95068H29.9512V10.0503H41.1405C41.5778 10.0503 41.8044 9.55343 41.5058 9.24916L38.637 6.32545Z" fill="#47E8D1"/>
<path d="M33.3718 1.95068H29.9512V10.0503H33.3718V1.95068Z" fill="#36C2AE"/>
<path d="M29.9509 22.1265C29.5342 22.1265 29.1963 21.8048 29.1963 21.408V0.718514C29.1963 0.321644 29.5341 0 29.9509 0C30.3677 0 30.7056 0.321644 30.7056 0.718514V21.408C30.7056 21.8048 30.3677 22.1265 29.9509 22.1265Z" fill="#CCD2DB"/>
<path d="M15.1641 26.4912C14.8541 26.1084 14.2478 26.1084 13.9378 26.4912L0.172727 43.4865C-0.244364 44.0014 0.141184 44.748 0.824097 44.748H9.08653L19.6194 31.7434L15.1641 26.4912Z" fill="#47E8D1"/>
<path d="M3.191 43.4865L16.0808 27.5719L15.1641 26.4912C14.8541 26.1084 14.2478 26.1084 13.9378 26.4912L0.172727 43.4865C-0.244365 44.0014 0.141184 44.748 0.824097 44.748H3.84237C3.15946 44.7481 2.77391 44.0014 3.191 43.4865Z" fill="#36C2AE"/>
<path d="M49.7932 43.2374L30.7897 19.774C30.3657 19.2505 29.5362 19.2505 29.1123 19.774L8.88525 44.748H49.0133C49.831 44.748 50.2926 43.854 49.7932 43.2374Z" fill="#47E8D1"/>
<path d="M30.7897 19.774C30.3656 19.2505 29.5362 19.2505 29.1122 19.774L8.88525 44.748H11.9035L31.4601 20.6018L30.7897 19.774Z" fill="#36C2AE"/>
</svg>
