<svg width="41" height="40" viewBox="0 0 41 40" fill="none" xmlns="http://www.w3.org/2000/svg">
<path d="M27.8492 0C21.2855 0 15.9136 5.1398 15.511 11.6038H13.4713L11.3772 9.50971L10.2833 10.6036L11.2835 11.6038H8.12269C3.64357 11.6038 0 15.2478 0 19.7265C0 24.2053 3.64357 27.8492 8.12269 27.8492H16.6987L18.7928 29.9433L19.8867 28.8494L18.8865 27.8492H33.6511C35.9968 27.8492 37.9059 29.7579 37.9059 32.104C37.9059 34.45 35.9968 36.3587 33.6511 36.3587H26.6223L24.5282 34.2646L23.4343 35.3585L24.4345 36.3587H12.3774V37.9059H24.4345L23.4343 38.9061L24.5282 40L26.6223 37.9059H33.6511C36.8505 37.9059 39.453 35.3033 39.453 32.104C39.453 28.9046 36.8505 26.302 33.6511 26.302H18.8865L19.8867 25.3018L18.7928 24.2079L16.6987 26.302H8.12269C4.49725 26.302 1.54718 23.3523 1.54718 19.7265C1.54718 16.1007 4.49725 13.151 8.12269 13.151H11.2835L10.2833 14.1512L11.3772 15.2451L13.4713 13.151H15.511C15.9136 19.615 21.2855 24.7549 27.8492 24.7549C34.674 24.7549 40.2266 19.2022 40.2266 12.3774C40.2266 5.55261 34.674 0 27.8492 0ZM27.8492 23.2077C22.1384 23.2077 17.4576 18.7618 17.0582 13.151H19.3789C19.7715 17.4815 23.4182 20.8869 27.8492 20.8869C32.5414 20.8869 36.3587 17.0696 36.3587 12.3774C36.3587 7.68528 32.5414 3.86795 27.8492 3.86795C23.4182 3.86795 19.7715 7.27336 19.3789 11.6038H17.0582C17.4576 5.99305 22.1384 1.54718 27.8492 1.54718C33.8211 1.54718 38.6795 6.40553 38.6795 12.3774C38.6795 18.3493 33.8211 23.2077 27.8492 23.2077ZM26.0754 15.2451L28.3962 12.9244C28.6983 12.6222 28.6983 12.1327 28.3962 11.8305L26.0754 9.50971L24.9815 10.6036L25.9817 11.6038H20.9326C21.3189 8.12812 24.2717 5.41512 27.8492 5.41512C31.6884 5.41512 34.8115 8.53857 34.8115 12.3774C34.8115 16.2163 31.6884 19.3397 27.8492 19.3397C24.2717 19.3397 21.3189 16.6267 20.9326 13.151H25.9817L24.9815 14.1512L26.0754 15.2451Z" fill="white"/>
</svg>
