<svg width="41" height="40" viewBox="0 0 41 40" fill="none" xmlns="http://www.w3.org/2000/svg">
<path d="M12.7784 28.9255L16.3199 25.3495C18.8307 27.4921 22.0848 28.7878 25.6363 28.7878C33.5607 28.7877 40.0078 22.3404 40.0079 14.4159C40.0079 6.49141 33.5608 0.0443152 25.6363 0.0443152C21.171 0.0443152 17.175 2.09145 14.537 5.29643L11.6622 2.4216H14.793V0H7.52826L7.52818 7.26479H9.94977L9.94985 4.13391L13.1401 7.3242C10.2551 12.3878 10.662 18.9077 14.6155 23.6291L11.066 27.213L8.99074 25.1376L0 34.1286L5.8714 40L14.8621 31.0092L12.7784 28.9255ZM14.9293 9.11351L17.2805 11.4647C16.9508 12.4002 16.7788 13.3948 16.7788 14.416C16.7788 19.3 20.7523 23.2734 25.6362 23.2734C30.5313 23.2734 34.4937 19.3118 34.4935 14.416C34.4937 9.52107 30.5319 5.55869 25.6362 5.55869C22.7288 5.55869 20.1114 6.95119 18.461 9.22055L16.2583 7.01778C18.4488 4.24716 21.8384 2.46591 25.6363 2.46591C32.2255 2.46591 37.5863 7.82668 37.5863 14.4159C37.5862 21.0052 32.2255 26.3661 25.6363 26.3663C19.0471 26.3661 13.6863 21.0052 13.6863 14.4159C13.6863 12.5126 14.1344 10.7122 14.9293 9.11351ZM32.0061 15.3394L27.4711 10.8044L23.7582 14.5177L20.2043 10.9638C22.4276 7.48112 27.2806 6.9591 30.187 9.86534C31.6792 11.3574 32.2851 13.3835 32.0061 15.3394ZM23.7582 17.9425L27.4712 14.2292L31.0846 17.8425C29.9234 19.6807 27.9095 20.8518 25.6363 20.8518C22.0875 20.8518 19.2005 17.9647 19.2005 14.4159C19.2005 14.0914 19.2245 13.7707 19.2714 13.4555L23.7582 17.9425ZM5.8714 36.5755L3.42462 34.1287L8.99082 28.5626L11.4375 31.0093L5.8714 36.5755Z" fill="#48C9B6"/>
</svg>
