<svg width="55" height="41" viewBox="0 0 55 41" fill="none" xmlns="http://www.w3.org/2000/svg">
<path d="M36.8832 5.43402C36.8831 5.43402 36.8831 5.43402 36.8832 5.43402C36.4381 5.43402 36.0774 5.79464 36.0774 6.23958V6.60524L31.7396 8.40949C31.687 8.01547 31.3504 7.71125 30.942 7.71125C30.9419 7.71125 30.9419 7.71125 30.9419 7.71125C30.4969 7.71125 30.1362 8.07187 30.1362 8.51681V9.07648L26.7573 10.4819C25.6445 10.4818 19.4308 10.4812 18.2039 10.4811C18.2038 10.4811 18.2038 10.4811 18.2036 10.4811C16.9447 10.4811 15.9205 11.5053 15.9203 12.7643V12.9181L15.1149 12.918V12.9151C15.1149 12.47 14.7543 12.1093 14.3094 12.1093C14.3093 12.1093 14.3093 12.1093 14.3093 12.1093C13.8643 12.1093 13.5036 12.4699 13.5036 12.9149V12.9893C11.7812 13.3263 10.4365 14.848 10.4363 16.7235C10.4361 18.5951 11.7766 20.1202 13.503 20.4583V20.5326C13.503 20.9776 13.8636 21.3383 14.3085 21.3383H14.3086C14.7536 21.3383 15.1143 20.9777 15.1143 20.5328V20.5299L15.9195 20.53V20.6838C15.9195 21.9429 16.9438 22.9673 18.2026 22.9673H18.3606L18.3602 25.9809C18.3602 26.4259 18.7209 26.7867 19.1658 26.7867H19.1659C19.6108 26.7867 19.9716 26.426 19.9716 25.9811L19.9719 22.9675L23.58 22.9678L23.5797 25.3255C23.5797 25.343 23.5694 25.3591 23.5535 25.3667L22.4484 25.8844C21.8689 26.156 21.4946 26.745 21.4946 27.3846L21.4943 30.6849C21.4943 30.9777 21.2573 31.215 20.964 31.215H20.5014C20.209 31.215 19.971 30.9771 19.971 30.6848L19.9712 29.2023C19.9712 28.7572 19.6106 28.3966 19.1656 28.3966C18.7205 28.3966 18.3599 28.7572 18.3599 29.2023L18.3597 30.6846C18.3597 31.8653 19.3203 32.8261 20.5013 32.8263H20.9641C22.1476 32.8263 23.1056 31.8686 23.1056 30.685L23.1059 27.3847C23.1059 27.3672 23.1163 27.3511 23.1321 27.3435L24.237 26.8259C24.8166 26.5545 25.1911 25.9655 25.1911 25.3256L25.1913 22.9679L26.756 22.968L30.1349 24.3742V24.9336C30.1349 25.3787 30.4956 25.7394 30.9405 25.7394H30.9406C31.3489 25.7394 31.6856 25.4353 31.7383 25.0414L36.0757 26.8464V27.2118C36.0757 27.6569 36.4363 28.0176 36.8812 28.0176H36.8813C37.3263 28.0176 37.687 27.657 37.687 27.212L37.6889 6.23979C37.6887 5.79474 37.328 5.43402 36.8832 5.43402ZM36.0756 25.1011L31.7463 23.2994L31.7474 10.1513L36.0772 8.35041L36.0756 25.1011ZM23.2878 12.0928L23.2877 13.1286C23.2877 13.4135 23.0559 13.6453 22.7709 13.6453H22.7708C22.7708 13.6453 22.7708 13.6453 22.7706 13.6453L20.78 13.6452C20.4945 13.6452 20.2632 13.4142 20.2632 13.1284L20.2633 12.0926L23.2878 12.0928ZM12.0475 16.7235C12.0475 15.7684 12.6525 14.9624 13.5033 14.6588L13.503 18.7886C12.6501 18.4839 12.0474 17.6769 12.0475 16.7235ZM15.1143 18.9185L15.1146 14.5292H15.9198C15.9198 15.0716 15.9195 17.8082 15.9195 18.9185H15.1143ZM17.5307 20.6839C17.5309 18.3186 17.5313 15.4514 17.5315 12.7644C17.5315 12.3932 17.8318 12.0923 18.2035 12.0923H18.2036H18.6521L18.652 13.1281C18.6518 14.3015 19.6064 15.2562 20.78 15.2563L22.7706 15.2564H22.771C23.9442 15.2563 24.8989 14.3019 24.8991 13.1285V12.0927L26.1122 12.0928C26.1121 13.2129 26.1116 20.2557 26.1115 21.3564L18.2026 21.3556C17.8322 21.3558 17.5307 21.0544 17.5307 20.6839ZM27.7228 21.625C27.7229 20.5152 27.7235 12.9439 27.7236 11.8249L30.136 10.8214L30.1349 22.6288L27.7228 21.625Z" fill="white"/>
<path d="M43.7572 15.918H40.7046C40.2595 15.918 39.8989 16.2786 39.8989 16.7237C39.8989 17.1687 40.2595 17.5294 40.7046 17.5294H43.7572C44.2022 17.5294 44.5629 17.1687 44.5629 16.7237C44.5629 16.2786 44.2021 15.918 43.7572 15.918Z" fill="white"/>
<path d="M39.7888 12.4763C39.9949 12.4763 40.2012 12.3977 40.3586 12.2404L42.5171 10.0819C42.8317 9.76712 42.8317 9.25708 42.5171 8.94244C42.2023 8.62791 41.6923 8.62791 41.3777 8.94244L39.2191 11.101C38.9045 11.4157 38.9045 11.9258 39.2191 12.2404C39.3764 12.3977 39.5826 12.4763 39.7888 12.4763Z" fill="white"/>
<path d="M40.2999 21.1829C39.9853 20.8681 39.4752 20.8682 39.1606 21.1828C38.8459 21.4974 38.8459 22.0075 39.1605 22.3221L41.3191 24.4807C41.4764 24.6381 41.6826 24.7167 41.8888 24.7167C42.095 24.7167 42.3012 24.6381 42.4585 24.4808C42.7732 24.1662 42.7732 23.656 42.4586 23.3415L40.2999 21.1829Z" fill="white"/>
<path d="M52.5675 33.4263H51.3966V2.7457C51.3966 1.2317 50.1649 0 48.6509 0H15.5943C15.1493 0 14.7887 0.360615 14.7887 0.805663C14.7887 1.25071 15.1493 1.61133 15.5943 1.61133H48.651C49.2764 1.61133 49.7854 2.12018 49.7854 2.7457V33.4262H48.174V4.02831C48.174 3.58326 47.8134 3.22265 47.3684 3.22265H7.63075C7.1857 3.22265 6.82509 3.58326 6.82509 4.02831V33.4263H5.21376V2.7457C5.21376 2.12029 5.72251 1.61133 6.34803 1.61133H12.3731C12.8181 1.61133 13.1788 1.25071 13.1788 0.805663C13.1788 0.360615 12.8181 0 12.3731 0H6.34803C4.83413 0 3.60243 1.2317 3.60243 2.7457V33.4262H2.43143C1.09038 33.4263 -0.000488281 34.5172 -0.000488281 35.8581V38.3589C-0.000488281 39.6997 1.09038 40.7907 2.43143 40.7907H42.7483C43.1933 40.7907 43.554 40.4301 43.554 39.985C43.554 39.54 43.1933 39.1794 42.7483 39.1794H2.43143C1.97897 39.1794 1.61084 38.8113 1.61084 38.3589V35.8581C1.61084 35.4056 1.97897 35.0375 2.43143 35.0375H21.4718V36.2058C21.4718 37.1317 22.2251 37.885 23.1509 37.885H31.8481C32.774 37.885 33.5273 37.1317 33.5273 36.2058V35.0375H52.5676C53.0201 35.0375 53.3882 35.4056 53.3882 35.8581V38.3589C53.3882 38.8113 53.0201 39.1794 52.5676 39.1794H45.9695C45.5245 39.1794 45.1639 39.54 45.1639 39.985C45.1639 40.4301 45.5245 40.7907 45.9695 40.7907H52.5676C53.9085 40.7907 54.9995 39.6998 54.9995 38.3589V35.8581C54.9994 34.5172 53.9085 33.4263 52.5675 33.4263ZM31.9159 36.2059C31.9159 36.2434 31.8855 36.2738 31.848 36.2738H23.1508C23.1134 36.2738 23.083 36.2434 23.083 36.2059V35.0376H31.9159V36.2059ZM8.43641 33.4263V4.83398H46.5626V33.4263H8.43641Z" fill="white"/>
</svg>
