<svg width="55" height="51" viewBox="0 0 55 51" fill="none" xmlns="http://www.w3.org/2000/svg">
<path d="M51.1677 0.00012207H40.0377C39.6008 0.00012207 39.2466 0.354311 39.2466 0.791187C39.2466 1.22806 39.6007 1.58225 40.0377 1.58225H51.1677C51.8947 1.58225 52.4861 2.17362 52.4861 2.90069V33.8716C52.4861 34.5985 51.8948 35.19 51.1677 35.19H45.9708C45.9301 35.1328 45.8898 35.0753 45.8474 35.019C45.0487 33.9577 43.9559 33.1271 42.7281 32.6372V31.7886H47.6514C48.3783 31.7886 48.9698 31.1972 48.9698 30.4701V6.01374C48.9698 5.28677 48.3784 4.6953 47.6514 4.6953H17.3624C16.6354 4.6953 16.0439 5.28667 16.0439 6.01374V30.4699C16.0439 31.1969 16.6353 31.7883 17.3624 31.7883H33.9409C34.3778 31.7883 34.732 31.4342 34.732 30.9973C34.732 30.5604 34.3779 30.2062 33.9409 30.2062H17.626V6.27743H47.3878V30.2062H42.7282V29.5754C42.7282 29.1946 42.6706 28.8169 42.5569 28.4531L41.1366 23.9078C40.9854 23.4247 40.5438 23.1 40.0375 23.1C39.5313 23.1 39.0899 23.4248 38.939 23.9079L37.5186 28.453C37.405 28.8165 37.3473 29.1941 37.3473 29.5754V32.643C36.0151 33.1733 34.9051 34.0676 34.1143 35.1898H9.12212C8.68524 35.1898 8.33105 35.544 8.33105 35.9809C8.33105 36.4177 8.68514 36.7719 9.12212 36.7719H33.2719C32.9633 37.5825 32.7963 38.4597 32.7963 39.3708C32.7963 42.3717 34.6021 45.0057 37.3472 46.0984V47.3507C37.3472 47.9486 37.4264 48.5443 37.5826 49.121C37.8867 50.245 38.8733 51 40.0378 51C41.2022 51 42.1888 50.2449 42.4929 49.1209C42.6491 48.5438 42.7283 47.9482 42.7283 47.3507V46.1045C43.9561 45.6146 45.0488 44.784 45.8476 43.7227C46.7979 42.46 47.3001 40.9551 47.3001 39.3708C47.3001 38.4686 47.1368 37.5926 46.821 36.7719H51.1678C52.767 36.7719 54.0683 35.4708 54.0683 33.8715V2.90059C54.0682 1.30125 52.7669 0.00012207 51.1677 0.00012207ZM34.3783 39.3707C34.3783 37.2464 35.5355 35.3575 37.3472 34.3854V44.3558C35.5355 43.3839 34.3783 41.495 34.3783 39.3707ZM40.9657 48.7077C40.824 49.2314 40.3934 49.4179 40.0377 49.4179C39.682 49.4179 39.2513 49.2313 39.1096 48.7075C38.99 48.2654 38.9293 47.8089 38.9293 47.3506V29.5755C38.9293 29.3544 38.9626 29.1357 39.0284 28.9251L40.0377 25.6957L41.0468 28.925C41.1127 29.1358 41.1461 29.3548 41.1461 29.5755V47.3507C41.1461 47.8087 41.0853 48.2653 40.9657 48.7077ZM42.7281 44.3669V34.3744C44.5522 35.3426 45.7179 37.2364 45.7179 39.3707C45.7179 41.505 44.5522 43.3988 42.7281 44.3669Z" fill="white"/>
<path d="M5.15264 35.1898H2.90047C2.1735 35.1898 1.58202 34.5984 1.58202 33.8713V2.90057C1.58202 2.17361 2.1734 1.58213 2.90047 1.58213H36.3076C36.7445 1.58213 37.0986 1.22794 37.0986 0.791065C37.0986 0.354189 36.7446 0 36.3076 0H2.90047C1.30123 0.000105602 0 1.30123 0 2.90057V33.8714C0 35.4708 1.30123 36.7719 2.90047 36.7719H5.15264C5.58952 36.7719 5.94371 36.4177 5.94371 35.9808C5.94371 35.544 5.58962 35.1898 5.15264 35.1898Z" fill="white"/>
<path d="M4.1377 18.0063C4.1377 20.5699 6.22334 22.6554 8.78693 22.6554C11.3505 22.6554 13.4361 20.5699 13.4361 18.0063C13.4361 15.4428 11.3505 13.3572 8.78693 13.3572C6.22334 13.3572 4.1377 15.4428 4.1377 18.0063ZM8.78693 14.9393C10.478 14.9393 11.8539 16.3152 11.8539 18.0063C11.8539 19.6975 10.478 21.0734 8.78693 21.0734C7.09572 21.0734 5.71983 19.6975 5.71983 18.0063C5.71972 16.3151 7.09561 14.9393 8.78693 14.9393Z" fill="white"/>
<path d="M10.8739 12.4574C11.4846 12.4574 11.9814 11.9606 11.9814 11.35V5.8027C11.9814 5.19211 11.4846 4.69525 10.8739 4.69525H6.69949C6.08879 4.69525 5.59204 5.19211 5.59204 5.8027V11.35C5.59204 11.9606 6.08879 12.4574 6.69949 12.4574H10.8739ZM7.17407 10.8754V9.3674H10.3993V10.8754H7.17407ZM10.3994 6.27738V7.78538H7.17407V6.27738H10.3994Z" fill="white"/>
<path d="M11.9814 30.6809V25.1336C11.9814 24.523 11.4846 24.0261 10.8739 24.0261H6.69949C6.08879 24.0261 5.59204 24.523 5.59204 25.1336V30.6809C5.59204 31.2914 6.08879 31.7883 6.69949 31.7883H10.8739C11.4846 31.7883 11.9814 31.2914 11.9814 30.6809ZM10.3994 25.6081V27.1161H7.17407V25.6081H10.3994ZM7.17407 30.2063V28.6983H10.3993V30.2063H7.17407Z" fill="white"/>
<path d="M29.4668 19.558C30.0167 20.0204 30.9683 20.4356 32.3758 19.788C33.2062 19.406 34.0189 18.7541 34.8048 18.1238C35.6143 17.4745 36.838 16.4935 37.1745 16.7704C37.4941 17.0333 37.2168 18.0817 37.0141 18.8474C36.6873 20.0824 36.2805 21.6194 37.4625 22.415C37.5981 22.5063 37.7517 22.55 37.9035 22.55C38.1579 22.55 38.4077 22.4275 38.5605 22.2005C38.8045 21.8381 38.7084 21.3465 38.346 21.1026C38.098 20.9356 38.3769 19.8818 38.5436 19.252C38.8732 18.0065 39.2833 16.4563 38.1793 15.5485C36.8497 14.4554 35.2374 15.7486 33.8148 16.8897C32.2977 18.1065 31.1713 18.9236 30.4846 18.3469C29.6015 17.6046 30.1745 16.2497 31.1494 14.2673C32.0413 12.4536 33.0523 10.3979 31.6024 9.03989C30.3731 7.88851 28.3201 8.41124 25.3261 10.6382C23.3413 12.1145 21.6564 13.8119 21.5858 13.8834C21.2786 14.194 21.2813 14.6948 21.5919 15.002C21.9025 15.3092 22.4034 15.3065 22.7106 14.9961C25.654 12.0219 29.5861 9.31847 30.5209 10.1946C31.0728 10.7115 30.5411 11.9193 29.7297 13.5692C28.7672 15.5267 27.5691 17.9631 29.4668 19.558Z" fill="white"/>
<path d="M8.78697 18.898C9.27944 18.898 9.67867 18.4987 9.67867 18.0063C9.67867 17.5138 9.27944 17.1146 8.78697 17.1146C8.29449 17.1146 7.89526 17.5138 7.89526 18.0063C7.89526 18.4987 8.29449 18.898 8.78697 18.898Z" fill="white"/>
</svg>
