<svg width="51" height="51" viewBox="0 0 51 51" fill="none" xmlns="http://www.w3.org/2000/svg">
<path d="M50.9665 7.60598C50.9243 7.46032 50.8436 7.3287 50.7331 7.22492C50.6225 7.12114 50.486 7.04903 50.338 7.01616L45.1528 5.84473L43.9814 0.659615C43.9481 0.511955 43.8758 0.375938 43.772 0.265762C43.6682 0.155585 43.5368 0.0752899 43.3914 0.0332567C43.2459 -0.00877653 43.0919 -0.0110063 42.9454 0.0268004C42.7988 0.064607 42.6651 0.141064 42.5581 0.248189L36.5946 6.21264C31.5482 3.16752 25.5618 2.07481 19.765 3.14071C13.9682 4.20661 8.76207 7.35741 5.12902 11.9985C1.49596 16.6396 -0.312707 22.45 0.0443414 28.3331C0.40139 34.2162 2.89946 39.7652 7.06712 43.9329C11.2348 48.1005 16.7838 50.5986 22.6669 50.9557C28.55 51.3127 34.3604 49.504 39.0015 45.871C43.6426 42.2379 46.7934 37.0318 47.8593 31.235C48.9252 25.4382 47.8325 19.4518 44.7874 14.4054L50.7533 8.43946C50.86 8.33227 50.9361 8.19841 50.9736 8.05182C51.0111 7.90524 51.0087 7.75128 50.9665 7.60598ZM46.5641 26.8743C46.5634 31.8137 44.9327 36.6147 41.925 40.5328C38.9173 44.4508 34.7007 47.2668 29.9293 48.5438C25.1579 49.8209 20.0984 49.4877 15.5357 47.5959C10.973 45.7041 7.16211 42.3595 4.69422 38.0808C2.22633 33.8022 1.23939 28.8287 1.88649 23.932C2.53359 19.0352 4.77856 14.4888 8.27316 10.9981C11.7678 7.50739 16.3166 5.26748 21.2141 4.62584C26.1116 3.98419 31.084 4.97668 35.3599 7.44934L32.6211 10.1881C32.5975 10.2149 32.5757 10.2432 32.5558 10.2727C28.6012 8.25942 24.0581 7.72265 19.7432 8.75893C15.4283 9.79521 11.6245 12.3366 9.01547 15.9262C6.40648 19.5159 5.1634 23.9184 5.50968 28.3425C5.85596 32.7666 7.76889 36.9221 10.9046 40.0621C14.0404 43.2021 18.1933 45.1207 22.6169 45.473C27.0405 45.8253 31.4447 44.5882 35.0379 41.9841C38.6311 39.38 41.1776 35.5796 42.2198 31.2661C43.2619 26.9526 42.7313 22.4088 40.7234 18.4515C40.7545 18.4295 40.784 18.4054 40.8119 18.3794L43.5507 15.6406C45.5285 19.0538 46.5681 22.9295 46.5641 26.8743ZM38.7156 18.3103C40.7933 21.8573 41.5074 26.0398 40.724 30.0752C39.9406 34.1106 37.7135 37.7223 34.4595 40.2342C31.2056 42.7462 27.1477 43.9863 23.0455 43.7224C18.9432 43.4585 15.0777 41.7088 12.1724 38.8007C9.26703 35.8925 7.52102 32.0253 7.2611 27.9228C7.00117 23.8203 8.24516 19.7637 10.7602 16.5121C13.2753 13.2606 16.8891 11.037 20.9252 10.2575C24.9614 9.47796 29.1433 10.196 32.6883 12.2772L33.5793 16.2241L32.7245 17.0789C30.1755 14.8406 26.856 13.6812 23.4677 13.846C20.0794 14.0108 16.888 15.4868 14.5683 17.9619C12.2485 20.4371 10.9822 23.7174 11.0372 27.1092C11.0921 30.5011 12.464 33.7386 14.8627 36.1373C17.2614 38.536 20.4989 39.9079 23.8908 39.9628C27.2826 40.0178 30.5629 38.7515 33.0381 36.4317C35.5132 34.112 36.9892 30.9206 37.154 27.5323C37.3188 24.144 36.1594 20.8245 33.9211 18.2755L34.7758 17.4207L38.7156 18.3103ZM27.7637 26.8743C27.7667 27.6831 27.5011 28.47 27.0086 29.1115C26.5161 29.753 25.8245 30.2129 25.0424 30.4189C24.2603 30.6249 23.4319 30.5655 22.6872 30.2499C21.9426 29.9343 21.3238 29.3804 20.9279 28.6751C20.532 27.9698 20.3815 27.153 20.5 26.353C20.6184 25.5529 20.9992 24.8148 21.5824 24.2545C22.1657 23.6942 22.9184 23.3433 23.7226 23.2571C24.5268 23.1708 25.3368 23.3539 26.0257 23.7777L23.5272 26.2763C23.4464 26.3543 23.3819 26.4477 23.3376 26.5509C23.2933 26.6542 23.27 26.7652 23.269 26.8775C23.2681 26.9899 23.2895 27.1013 23.3321 27.2052C23.3746 27.3092 23.4375 27.4037 23.5169 27.4831C23.5964 27.5625 23.6909 27.6253 23.7948 27.6678C23.8988 27.7103 24.0102 27.7317 24.1226 27.7307C24.2349 27.7297 24.3459 27.7064 24.4492 27.662C24.5524 27.6176 24.6457 27.5532 24.7237 27.4723L27.2223 24.9738C27.576 25.5446 27.7635 26.2028 27.7637 26.8743ZM27.2435 22.5599C26.1535 21.7703 24.806 21.4205 23.4695 21.5801C22.133 21.7397 20.9057 22.3969 20.0322 23.421C19.1587 24.445 18.7032 25.7605 18.7563 27.1055C18.8094 28.4504 19.3673 29.7259 20.3189 30.6778C21.2704 31.6298 22.5457 32.1882 23.8906 32.2419C25.2355 32.2955 26.5513 31.8405 27.5756 30.9674C28.6 30.0943 29.2578 28.8673 29.4179 27.5309C29.578 26.1945 29.2287 24.8468 28.4396 23.7565L32.7221 19.474C34.6409 21.7032 35.6209 24.5895 35.4561 27.5262C35.2912 30.4629 33.9944 33.2214 31.8382 35.2219C29.6819 37.2224 26.8342 38.3092 23.8933 38.2538C20.9525 38.1985 18.1477 37.0053 16.0683 34.925C13.9888 32.8448 12.7968 30.0394 12.7426 27.0986C12.6884 24.1577 13.7763 21.3104 15.7777 19.155C17.7791 16.9995 20.5381 15.7038 23.4749 15.5402C26.4117 15.3765 29.2976 16.3577 31.526 18.2774L27.2435 22.5599ZM43.1223 13.6758L39.9469 16.8507L39.4707 16.7434L39.4524 16.739L35.2148 15.7852L34.1469 11.0555L42.6712 2.52964L43.6222 6.73865C43.6575 6.89469 43.7362 7.03754 43.8493 7.15066C43.9625 7.26377 44.1053 7.34252 44.2613 7.37778L48.4704 8.32875L43.1223 13.6758Z" fill="#FC8021"/>
</svg>
