<svg width="53" height="40" viewBox="0 0 53 40" fill="none" xmlns="http://www.w3.org/2000/svg">
<path d="M35.5423 5.23645C35.5422 5.23645 35.5422 5.23645 35.5423 5.23645C35.1134 5.23645 34.7658 5.58395 34.7658 6.01271V6.36508L30.5858 8.10372C30.5351 7.72403 30.2107 7.43087 29.8172 7.43087C29.8171 7.43087 29.8171 7.43087 29.8171 7.43087C29.3883 7.43087 29.0407 7.77838 29.0407 8.20714V8.74645L25.7846 10.1007C24.7123 10.1006 18.7246 10.1001 17.5423 10.1C17.5422 10.1 17.5422 10.1 17.542 10.1C16.3289 10.1 15.3419 11.0869 15.3417 12.3001V12.4484L14.5656 12.4483V12.4455C14.5656 12.0166 14.2181 11.669 13.7894 11.669C13.7893 11.669 13.7893 11.669 13.7893 11.669C13.3605 11.669 13.0129 12.0165 13.0129 12.4453V12.517C11.3531 12.8417 10.0573 14.3081 10.0571 16.1154C10.0569 17.919 11.3487 19.3886 13.0123 19.7144V19.786C13.0123 20.2148 13.3598 20.5624 13.7885 20.5624H13.7887C14.2174 20.5624 14.565 20.2149 14.565 19.7862V19.7834L15.341 19.7835V19.9317C15.341 21.145 16.328 22.1321 17.5411 22.1321H17.6933L17.6929 25.0362C17.6929 25.465 18.0404 25.8126 18.4692 25.8126H18.4693C18.8981 25.8126 19.2457 25.4651 19.2457 25.0364L19.246 22.1323L22.7229 22.1327L22.7227 24.4046C22.7227 24.4215 22.7127 24.437 22.6974 24.4443L21.6324 24.9432C21.0741 25.2049 20.7133 25.7725 20.7133 26.3888L20.713 29.5691C20.713 29.8513 20.4846 30.08 20.2021 30.08H19.7562C19.4744 30.08 19.2452 29.8507 19.2452 29.569L19.2454 28.1404C19.2454 27.7115 18.8979 27.364 18.469 27.364C18.0401 27.364 17.6926 27.7115 17.6926 28.1404L17.6924 29.5688C17.6924 30.7066 18.6181 31.6325 19.7561 31.6327H20.2022C21.3426 31.6327 22.2657 30.7097 22.2657 29.5692L22.266 26.3889C22.266 26.372 22.2761 26.3565 22.2913 26.3493L23.356 25.8504C23.9145 25.5889 24.2754 25.0214 24.2754 24.4047L24.2756 22.1328L25.7834 22.1329L29.0395 23.4879V24.027C29.0395 24.4559 29.387 24.8035 29.8157 24.8035H29.8158C30.2093 24.8035 30.5337 24.5104 30.5845 24.1308L34.7642 25.8702V26.2223C34.7642 26.6512 35.1117 26.9988 35.5404 26.9988H35.5406C35.9693 26.9988 36.3169 26.6513 36.3169 26.2225L36.3188 6.01292C36.3186 5.58405 35.971 5.23645 35.5423 5.23645ZM34.7641 24.1884L30.5922 22.4522L30.5933 9.78223L34.7656 8.04679L34.7641 24.1884ZM22.4413 11.6531L22.4412 12.6513C22.4412 12.9258 22.2178 13.1492 21.9432 13.1492H21.9431C21.9431 13.1492 21.9431 13.1492 21.943 13.1492L20.0247 13.1491C19.7496 13.1491 19.5267 12.9264 19.5267 12.6511L19.5268 11.6529L22.4413 11.6531ZM11.6098 16.1154C11.6098 15.195 12.1928 14.4184 13.0126 14.1257L13.0123 18.1054C12.1905 17.8118 11.6097 17.0341 11.6098 16.1154ZM14.565 18.2305L14.5653 14.0009H15.3413C15.3413 14.5235 15.341 17.1607 15.341 18.2305H14.565ZM16.8936 19.9318C16.8938 17.6525 16.8941 14.8896 16.8943 12.3002C16.8943 11.9426 17.1837 11.6526 17.5419 11.6526H17.542H17.9742L17.9741 12.6507C17.9739 13.7814 18.8938 14.7015 20.0247 14.7016L21.943 14.7017H21.9433C23.0739 14.7016 23.9938 13.7819 23.994 12.6512V11.653L25.163 11.6531C25.1629 12.7324 25.1624 19.5192 25.1623 20.5798L17.5411 20.5791C17.1841 20.5793 16.8936 20.2888 16.8936 19.9318ZM26.715 20.8387C26.7151 19.7692 26.7158 12.4732 26.7159 11.3949L29.0405 10.428L29.0395 21.806L26.715 20.8387Z" fill="#811AFF"/>
<path d="M42.1667 15.3392H39.2251C38.7962 15.3392 38.4487 15.6867 38.4487 16.1156C38.4487 16.5445 38.7962 16.892 39.2251 16.892H42.1667C42.5956 16.892 42.9431 16.5445 42.9431 16.1156C42.9431 15.6867 42.5955 15.3392 42.1667 15.3392Z" fill="#811AFF"/>
<path d="M38.3423 12.0226C38.5409 12.0226 38.7397 11.9468 38.8913 11.7952L40.9713 9.7152C41.2745 9.4119 41.2745 8.92041 40.9713 8.61721C40.668 8.31412 40.1765 8.31412 39.8734 8.61721L37.7933 10.6973C37.4901 11.0006 37.4901 11.492 37.7933 11.7952C37.9449 11.9468 38.1436 12.0226 38.3423 12.0226Z" fill="#811AFF"/>
<path d="M38.8351 20.4126C38.5319 20.1093 38.0403 20.1094 37.7373 20.4125C37.434 20.7157 37.434 21.2073 37.7371 21.5104L39.8172 23.5906C39.9688 23.7422 40.1675 23.818 40.3662 23.818C40.5649 23.818 40.7636 23.7422 40.9152 23.5907C41.2185 23.2875 41.2185 22.7959 40.9153 22.4928L38.8351 20.4126Z" fill="#811AFF"/>
<path d="M50.6564 32.2108H49.5281V2.64585C49.5281 1.18691 48.3412 0 46.8822 0H15.0277C14.5989 0 14.2514 0.347501 14.2514 0.776366C14.2514 1.20523 14.5989 1.55273 15.0277 1.55273H46.8823C47.485 1.55273 47.9755 2.04308 47.9755 2.64585V32.2107H46.4227V3.88183C46.4227 3.45296 46.0752 3.10546 45.6464 3.10546H7.35374C6.92487 3.10546 6.57737 3.45296 6.57737 3.88183V32.2108H5.02464V2.64585C5.02464 2.04319 5.51489 1.55273 6.11766 1.55273H11.9236C12.3525 1.55273 12.7 1.20523 12.7 0.776366C12.7 0.347501 12.3525 0 11.9236 0H6.11766C4.65882 0 3.47191 1.18691 3.47191 2.64585V32.2107H2.34349C1.0512 32.2108 0 33.262 0 34.5542V36.964C0 38.2561 1.0512 39.3074 2.34349 39.3074H41.1943C41.6231 39.3074 41.9706 38.9599 41.9706 38.531C41.9706 38.1022 41.6231 37.7547 41.1943 37.7547H2.34349C1.90748 37.7547 1.55273 37.4 1.55273 36.964V34.5542C1.55273 34.1182 1.90748 33.7634 2.34349 33.7634H20.6915V34.8893C20.6915 35.7815 21.4173 36.5074 22.3095 36.5074H30.6905C31.5827 36.5074 32.3086 35.7815 32.3086 34.8893V33.7634H50.6565C51.0925 33.7634 51.4473 34.1182 51.4473 34.5542V36.964C51.4473 37.4 51.0925 37.7547 50.6565 37.7547H44.2984C43.8695 37.7547 43.522 38.1022 43.522 38.531C43.522 38.9599 43.8695 39.3074 44.2984 39.3074H50.6565C51.9487 39.3074 53 38.2562 53 36.964V34.5542C52.9999 33.262 51.9487 32.2108 50.6564 32.2108ZM30.7558 34.8894C30.7558 34.9255 30.7265 34.9548 30.6904 34.9548H22.3094C22.2734 34.9548 22.2441 34.9255 22.2441 34.8894V33.7635H30.7558V34.8894ZM8.1301 32.2108V4.65819H44.8699V32.2108H8.1301Z" fill="#811AFF"/>
</svg>
