<svg width="25" height="25" viewBox="0 0 25 25" fill="none" xmlns="http://www.w3.org/2000/svg">
<path d="M15.7252 17.7419C16.616 17.7419 17.3381 17.0198 17.3381 16.129C17.3381 15.2383 16.616 14.5161 15.7252 14.5161C14.8344 14.5161 14.1123 15.2383 14.1123 16.129C14.1123 17.0198 14.8344 17.7419 15.7252 17.7419Z" fill="#811AFF" fill-opacity="0.25"/>
<path d="M15.7254 7.25812C13.9709 7.25812 12.2558 7.77839 10.797 8.75314C9.33819 9.72789 8.20118 11.1133 7.52976 12.7343C6.85834 14.3553 6.68266 16.1389 7.02495 17.8597C7.36724 19.5805 8.21211 21.1611 9.45274 22.4018C10.6934 23.6424 12.274 24.4873 13.9948 24.8296C15.7156 25.1718 17.4993 24.9962 19.1202 24.3248C20.7412 23.6533 22.1266 22.5163 23.1014 21.0575C24.0761 19.5987 24.5964 17.8836 24.5964 16.1291C24.5964 13.7763 23.6618 11.52 21.9982 9.85636C20.3345 8.19273 18.0782 7.25812 15.7254 7.25812ZM11.7335 20.6895C11.658 20.7646 11.5558 20.8068 11.4492 20.8068C11.3427 20.8068 11.2405 20.7646 11.165 20.6895C10.2633 19.7873 9.64933 18.638 9.40064 17.3869C9.15195 16.1358 9.27971 14.8391 9.76777 13.6605C10.2558 12.482 11.0823 11.4747 12.1427 10.7657C13.2031 10.0568 14.4499 9.67806 15.7254 9.67747C15.7942 9.67768 15.8617 9.69545 15.9217 9.72911C15.9816 9.76276 16.0319 9.81118 16.0679 9.86976C16.1038 9.92834 16.1242 9.99514 16.1271 10.0638C16.13 10.1325 16.1152 10.2008 16.0843 10.2621L14.8746 12.6815C14.8533 12.7327 14.8217 12.7789 14.7817 12.8173C14.7417 12.8557 14.6942 12.8855 14.6422 12.9047C14.5902 12.9239 14.5348 12.9322 14.4794 12.9291C14.4241 12.9259 14.3699 12.9113 14.3205 12.8863C14.271 12.8613 14.2272 12.8264 14.1918 12.7836C14.1565 12.7409 14.1303 12.6914 14.1149 12.6381C14.0996 12.5848 14.0954 12.529 14.1026 12.474C14.1098 12.419 14.1283 12.3661 14.1569 12.3186L15.0521 10.5242C14.0005 10.6505 13.0056 11.0701 12.1812 11.735C11.3568 12.3999 10.7361 13.2833 10.3899 14.2842C10.0438 15.2852 9.98623 16.3634 10.2238 17.3955C10.4614 18.4276 10.9846 19.3721 11.7335 20.121C11.8086 20.1965 11.8508 20.2987 11.8508 20.4053C11.8508 20.5118 11.8086 20.614 11.7335 20.6895ZM13.3061 16.1291C13.3061 15.6506 13.448 15.1828 13.7138 14.7849C13.9797 14.3871 14.3575 14.077 14.7996 13.8939C15.2417 13.7108 15.7281 13.6629 16.1974 13.7562C16.6667 13.8496 17.0978 14.08 17.4362 14.4183C17.7745 14.7567 18.005 15.1878 18.0983 15.6571C18.1917 16.1264 18.1437 16.6128 17.9606 17.0549C17.7775 17.497 17.4674 17.8748 17.0696 18.1407C16.6717 18.4065 16.2039 18.5484 15.7254 18.5484C15.0838 18.5484 14.4684 18.2935 14.0147 17.8398C13.561 17.3861 13.3061 16.7707 13.3061 16.1291ZM20.2859 20.6895C19.689 21.2912 18.9784 21.7683 18.1955 22.0929C17.4126 22.4176 16.573 22.5834 15.7254 22.5807C15.6567 22.5805 15.5892 22.5627 15.5292 22.529C15.4693 22.4954 15.419 22.447 15.383 22.3884C15.3471 22.3298 15.3267 22.263 15.3238 22.1943C15.3209 22.1256 15.3356 22.0574 15.3666 21.996L16.5762 19.5766C16.6287 19.4894 16.7123 19.4253 16.8101 19.3971C16.908 19.3689 17.0128 19.3787 17.1037 19.4247C17.1945 19.4706 17.2647 19.5492 17.3 19.6447C17.3353 19.7402 17.3331 19.8456 17.294 19.9395L16.3988 21.7339C17.4504 21.6076 18.4452 21.1881 19.2697 20.5232C20.0941 19.8583 20.7148 18.9749 21.061 17.9739C21.4071 16.9729 21.4647 15.8948 21.2271 14.8626C20.9895 13.8305 20.4663 12.886 19.7174 12.1371C19.6513 12.06 19.6168 11.9608 19.6207 11.8593C19.6246 11.7578 19.6667 11.6615 19.7385 11.5897C19.8103 11.5179 19.9066 11.4759 20.0081 11.4719C20.1096 11.468 20.2088 11.5025 20.2859 11.5686C21.4949 12.7784 22.1741 14.4187 22.1741 16.1291C22.1741 17.8394 21.4949 19.4798 20.2859 20.6895Z" fill="#811AFF" fill-opacity="0.25"/>
<path d="M10.8866 20.1613H8.24145C7.90126 20.1603 7.57506 20.0258 7.33301 19.7868C7.09095 19.5477 6.95238 19.2232 6.9471 18.8831V17.5403L4.43501 16.0887L3.26566 16.746C2.96892 16.9127 2.61847 16.9558 2.29018 16.866C1.9619 16.7762 1.68219 16.5607 1.51163 16.2661L0.172924 13.9758C0.00306142 13.6805 -0.0439422 13.3303 0.0420485 13.0007C0.128039 12.6711 0.340135 12.3884 0.6326 12.2137L1.78582 11.5323V8.62907L0.6326 7.94762C0.340135 7.77293 0.128039 7.4903 0.0420485 7.16067C-0.0439422 6.83104 0.00306142 6.48082 0.172924 6.18553L1.4955 3.89521C1.66606 3.60068 1.94577 3.38518 2.27406 3.29538C2.60234 3.20557 2.95279 3.24868 3.24953 3.41537L4.41888 4.07263L6.93097 2.62102V1.27828C6.93628 0.935329 7.07708 0.608411 7.32262 0.36892C7.56815 0.129428 7.89848 -0.00317881 8.24145 5.78889e-05H10.8866C11.2268 0.00107339 11.553 0.135564 11.7951 0.374602C12.0371 0.613641 12.1757 0.938131 12.181 1.27828V2.62102L14.7172 4.07263L15.8866 3.41537C16.1839 3.24848 16.535 3.20526 16.864 3.29504C17.1929 3.38482 17.4733 3.6004 17.6447 3.89521L18.9672 6.18553C19.1357 6.48155 19.1815 6.83178 19.0948 7.16116C19.0081 7.49054 18.7959 7.77286 18.5035 7.94762L17.3382 8.62907V11.5323L18.4914 12.2137C18.7838 12.3885 18.996 12.6708 19.0827 13.0002C19.1694 13.3296 19.1236 13.6798 18.9551 13.9758L17.6326 16.2661C17.4612 16.561 17.1808 16.7765 16.8519 16.8663C16.5229 16.9561 16.1718 16.9129 15.8745 16.746L14.7172 16.0887L12.2092 17.5403V18.8831C12.2066 19.0539 12.1702 19.2226 12.1023 19.3794C12.0344 19.5362 11.9361 19.678 11.8133 19.7968C11.6904 19.9155 11.5453 20.0088 11.3863 20.0714C11.2273 20.134 11.0575 20.1645 10.8866 20.1613ZM4.63662 15.2782L7.54387 16.9557C7.60482 16.9908 7.65549 17.0414 7.69086 17.1022C7.72623 17.163 7.74506 17.2321 7.74549 17.3024L7.76565 18.871C7.76666 18.9976 7.81686 19.1189 7.90565 19.2092C7.99444 19.2995 8.11486 19.3517 8.24145 19.3549H10.8866C11.015 19.3538 11.1379 19.3026 11.229 19.2122C11.3202 19.1218 11.3724 18.9994 11.3745 18.871V17.3024C11.3749 17.2321 11.3938 17.163 11.4291 17.1022C11.4645 17.0414 11.5152 16.9908 11.5761 16.9557L14.4874 15.2782C14.5487 15.2429 14.6182 15.2242 14.689 15.2242C14.7598 15.2242 14.8293 15.2429 14.8906 15.2782L16.2576 16.0484C16.3701 16.1114 16.5029 16.1277 16.6273 16.0938C16.7518 16.0598 16.8579 15.9784 16.9229 15.867L18.2455 13.5766C18.3124 13.4653 18.3326 13.332 18.3016 13.2059C18.2706 13.0797 18.191 12.9709 18.0801 12.9033L16.7334 12.0968C16.6732 12.0611 16.6233 12.0104 16.5887 11.9496C16.554 11.8888 16.5358 11.82 16.5358 11.75V8.39923C16.5379 8.33132 16.5571 8.26503 16.5916 8.20652C16.6261 8.14801 16.6749 8.09918 16.7334 8.06456L18.0842 7.25811C18.1949 7.19247 18.2755 7.08605 18.3087 6.96166C18.3419 6.83728 18.325 6.70484 18.2616 6.59278L16.935 4.29843C16.87 4.187 16.7639 4.10555 16.6394 4.07161C16.515 4.03767 16.3822 4.05397 16.2697 4.11698L14.9027 4.88714C14.8414 4.92253 14.7719 4.94117 14.7011 4.94117C14.6303 4.94117 14.5608 4.92253 14.4995 4.88714L11.5923 3.22586C11.5313 3.19067 11.4806 3.14015 11.4453 3.07932C11.4099 3.01848 11.3911 2.94945 11.3906 2.87908V1.31054C11.3923 1.2439 11.3804 1.17761 11.3557 1.11571C11.3309 1.05381 11.2938 0.997578 11.2467 0.950439C11.1996 0.903301 11.1433 0.866235 11.0814 0.841493C11.0195 0.81675 10.9533 0.804848 10.8866 0.806508H8.24145C8.11275 0.806503 7.98926 0.857353 7.89787 0.947982C7.80649 1.03861 7.75461 1.16168 7.75355 1.29038L7.73339 2.85892C7.73296 2.92929 7.71413 2.99832 7.67876 3.05916C7.64339 3.11999 7.59272 3.17051 7.53178 3.2057L4.63662 4.88311C4.57533 4.9185 4.50579 4.93713 4.43501 4.93713C4.36423 4.93713 4.2947 4.9185 4.2334 4.88311L2.86243 4.11295C2.7505 4.05013 2.61832 4.03395 2.49454 4.06791C2.37075 4.10188 2.26534 4.18325 2.20114 4.2944L0.870503 6.58875C0.805537 6.7007 0.787307 6.83373 0.819762 6.95903C0.852218 7.08432 0.932745 7.19178 1.04389 7.25811L2.39469 8.06456C2.45489 8.10024 2.50475 8.15098 2.5394 8.21178C2.57404 8.27258 2.59226 8.34135 2.59227 8.41133V11.7742C2.59226 11.8442 2.57404 11.913 2.5394 11.9738C2.50475 12.0346 2.45489 12.0853 2.39469 12.121L1.04389 12.9033C0.933829 12.9695 0.854071 13.0763 0.82167 13.2006C0.789269 13.3249 0.806796 13.457 0.870503 13.5686L2.19308 15.8589C2.25728 15.97 2.36269 16.0514 2.48647 16.0854C2.61025 16.1193 2.74244 16.1032 2.85437 16.0403L4.2334 15.2742C4.29505 15.2394 4.36477 15.2215 4.43555 15.2222C4.50633 15.2229 4.57568 15.2422 4.63662 15.2782ZM9.56403 13.7097C8.84628 13.7097 8.14464 13.4969 7.54785 13.0981C6.95106 12.6993 6.48592 12.1326 6.21125 11.4694C5.93658 10.8063 5.86471 10.0767 6.00474 9.37269C6.14476 8.66873 6.4904 8.0221 6.99792 7.51457C7.50545 7.00704 8.15208 6.66141 8.85604 6.52139C9.56001 6.38136 10.2897 6.45323 10.9528 6.7279C11.6159 7.00257 12.1827 7.46771 12.5815 8.0645C12.9802 8.66129 13.1931 9.36293 13.1931 10.0807C13.1931 11.0432 12.8107 11.9662 12.1301 12.6468C11.4496 13.3274 10.5265 13.7097 9.56403 13.7097ZM9.56403 7.25811C9.00578 7.25811 8.46006 7.42365 7.99589 7.73379C7.53172 8.04394 7.16995 8.48477 6.95631 9.00053C6.74268 9.51628 6.68678 10.0838 6.79569 10.6313C6.9046 11.1789 7.17343 11.6818 7.56817 12.0765C7.96291 12.4713 8.46585 12.7401 9.01337 12.849C9.5609 12.9579 10.1284 12.902 10.6442 12.6884C11.1599 12.4748 11.6008 12.113 11.9109 11.6488C12.2211 11.1846 12.3866 10.6389 12.3866 10.0807C12.3866 9.33209 12.0892 8.61415 11.5599 8.08482C11.0306 7.55548 10.3126 7.25811 9.56403 7.25811Z" fill="#767676"/>
</svg>
