<svg width="23" height="25" viewBox="0 0 23 25" fill="none" xmlns="http://www.w3.org/2000/svg">
<path d="M17.7428 10.0806H15.7266V8.75804C15.8804 8.66927 16.0005 8.53226 16.0685 8.36824C16.1364 8.20423 16.1483 8.02238 16.1024 7.8509C16.0564 7.67942 15.9552 7.5279 15.8144 7.41982C15.6735 7.31175 15.5009 7.25317 15.3234 7.25317C15.1459 7.25317 14.9733 7.31175 14.8325 7.41982C14.6916 7.5279 14.5904 7.67942 14.5444 7.8509C14.4985 8.02238 14.5104 8.20423 14.5783 8.36824C14.6463 8.53226 14.7664 8.66927 14.9202 8.75804V10.0806H12.9041C12.1555 10.0806 11.4375 10.378 10.9082 10.9073C10.3788 11.4367 10.0815 12.1546 10.0815 12.9032C10.0815 13.6518 10.3788 14.3697 10.9082 14.8991C11.4375 15.4284 12.1555 15.7258 12.9041 15.7258H17.7428C18.4914 15.7258 19.2093 15.4284 19.7386 14.8991C20.268 14.3697 20.5654 13.6518 20.5654 12.9032C20.5654 12.1546 20.268 11.4367 19.7386 10.9073C19.2093 10.378 18.4914 10.0806 17.7428 10.0806ZM17.3395 13.7097C17.1988 13.7088 17.0607 13.6711 16.9391 13.6004C16.8174 13.5297 16.7164 13.4283 16.646 13.3064H14.0008C13.9121 13.4602 13.7751 13.5803 13.611 13.6483C13.447 13.7162 13.2652 13.7281 13.0937 13.6822C12.9222 13.6362 12.7707 13.535 12.6626 13.3941C12.5545 13.2533 12.496 13.0807 12.496 12.9032C12.496 12.7257 12.5545 12.5531 12.6626 12.4123C12.7707 12.2714 12.9222 12.1702 13.0937 12.1242C13.2652 12.0783 13.447 12.0902 13.611 12.1581C13.7751 12.2261 13.9121 12.3462 14.0008 12.5H16.646C16.7169 12.3772 16.8189 12.2753 16.9417 12.2045C17.0645 12.1337 17.2039 12.0966 17.3456 12.0968C17.4874 12.097 17.6266 12.1346 17.7492 12.2057C17.8718 12.2769 17.9735 12.3791 18.044 12.5021C18.1145 12.6251 18.1514 12.7645 18.1508 12.9063C18.1503 13.048 18.1124 13.1871 18.041 13.3096C17.9695 13.432 17.8671 13.5335 17.7439 13.6037C17.6208 13.674 17.4813 13.7105 17.3395 13.7097ZM18.5492 23.3871V25H12.0976V23.3871C12.0976 22.8524 12.31 22.3396 12.6881 21.9615C13.0662 21.5834 13.579 21.371 14.1137 21.371H16.5331C17.0678 21.371 17.5806 21.5834 17.9587 21.9615C18.3368 22.3396 18.5492 22.8524 18.5492 23.3871ZM22.9847 23.7903C22.9847 24.1111 22.8573 24.4188 22.6304 24.6457C22.4036 24.8726 22.0959 25 21.775 25H19.3557V23.3871C19.3557 22.6385 19.0583 21.9206 18.529 21.3912C17.9996 20.8619 17.2817 20.5645 16.5331 20.5645H14.1137C13.3651 20.5645 12.6472 20.8619 12.1179 21.3912C11.5885 21.9206 11.2911 22.6385 11.2911 23.3871V25H8.87179C8.55096 25 8.24328 24.8726 8.01642 24.6457C7.78956 24.4188 7.66211 24.1111 7.66211 23.7903C7.66211 21.7584 8.46928 19.8097 9.90605 18.373C11.3428 16.9362 13.2915 16.129 15.3234 16.129C17.3553 16.129 19.304 16.9362 20.7408 18.373C22.1775 19.8097 22.9847 21.7584 22.9847 23.7903Z" fill="#811AFF" fill-opacity="0.25"/>
<path d="M10.8871 0H2.01613C1.48142 0 0.96861 0.212413 0.590512 0.590512C0.212413 0.96861 0 1.48142 0 2.01613V18.1452C0 18.6799 0.212413 19.1927 0.590512 19.5708C0.96861 19.9489 1.48142 20.1613 2.01613 20.1613H10.8871C11.4218 20.1613 11.9346 19.9489 12.3127 19.5708C12.6908 19.1927 12.9032 18.6799 12.9032 18.1452V2.01613C12.9032 1.75137 12.8511 1.4892 12.7498 1.24459C12.6485 0.999983 12.5 0.777727 12.3127 0.590512C12.1255 0.403296 11.9033 0.254789 11.6587 0.153469C11.414 0.0521488 11.1519 0 10.8871 0ZM0.806453 3.22581H12.0968V16.9355H0.806453V3.22581ZM2.01613 0.806453H10.8871C11.2079 0.806453 11.5156 0.933901 11.7425 1.16076C11.9693 1.38762 12.0968 1.69531 12.0968 2.01613V2.41936H0.806453V2.01613C0.806453 1.69531 0.933901 1.38762 1.16076 1.16076C1.38762 0.933901 1.69531 0.806453 2.01613 0.806453ZM10.8871 19.3549H2.01613C1.69531 19.3549 1.38762 19.2274 1.16076 19.0006C0.933901 18.7737 0.806453 18.466 0.806453 18.1452V17.742H12.0968V18.1452C12.0968 18.466 11.9693 18.7737 11.7425 19.0006C11.5156 19.2274 11.2079 19.3549 10.8871 19.3549ZM10.4839 10.0807C10.4839 10.1876 10.4414 10.2902 10.3658 10.3658C10.2902 10.4414 10.1876 10.4839 10.0807 10.4839H2.82259C2.71564 10.4839 2.61308 10.4414 2.53746 10.3658C2.46184 10.2902 2.41936 10.1876 2.41936 10.0807C2.41936 9.97372 2.46184 9.87116 2.53746 9.79554C2.61308 9.71992 2.71564 9.67744 2.82259 9.67744H10.0807C10.1876 9.67744 10.2902 9.71992 10.3658 9.79554C10.4414 9.87116 10.4839 9.97372 10.4839 10.0807ZM9.27421 12.5C9.27421 12.607 9.23173 12.7095 9.15611 12.7851C9.08049 12.8608 8.97793 12.9032 8.87098 12.9032H4.03226C3.92532 12.9032 3.82276 12.8608 3.74714 12.7851C3.67152 12.7095 3.62904 12.607 3.62904 12.5C3.62904 12.3931 3.67152 12.2905 3.74714 12.2149C3.82276 12.1393 3.92532 12.0968 4.03226 12.0968H8.87098C8.97793 12.0968 9.08049 12.1393 9.15611 12.2149C9.23173 12.2905 9.27421 12.3931 9.27421 12.5ZM3.62904 7.6613C3.62904 7.55436 3.67152 7.4518 3.74714 7.37618C3.82276 7.30056 3.92532 7.25808 4.03226 7.25808H8.87098C8.97793 7.25808 9.08049 7.30056 9.15611 7.37618C9.23173 7.4518 9.27421 7.55436 9.27421 7.6613C9.27421 7.76825 9.23173 7.87081 9.15611 7.94643C9.08049 8.02205 8.97793 8.06453 8.87098 8.06453H4.03226C3.92532 8.06453 3.82276 8.02205 3.74714 7.94643C3.67152 7.87081 3.62904 7.76825 3.62904 7.6613ZM8.06453 14.9194C8.06453 15.0263 8.02205 15.1289 7.94643 15.2045C7.87081 15.2801 7.76825 15.3226 7.6613 15.3226H5.24194C5.135 15.3226 5.03244 15.2801 4.95682 15.2045C4.8812 15.1289 4.83872 15.0263 4.83872 14.9194C4.83872 14.8124 4.8812 14.7099 4.95682 14.6343C5.03244 14.5586 5.135 14.5162 5.24194 14.5162H7.6613C7.76825 14.5162 7.87081 14.5586 7.94643 14.6343C8.02205 14.7099 8.06453 14.8124 8.06453 14.9194ZM4.83872 5.24194C4.83872 5.135 4.8812 5.03244 4.95682 4.95682C5.03244 4.8812 5.135 4.83872 5.24194 4.83872H7.6613C7.76825 4.83872 7.87081 4.8812 7.94643 4.95682C8.02205 5.03244 8.06453 5.135 8.06453 5.24194C8.06453 5.34889 8.02205 5.45145 7.94643 5.52707C7.87081 5.60269 7.76825 5.64517 7.6613 5.64517H5.24194C5.135 5.64517 5.03244 5.60269 4.95682 5.52707C4.8812 5.45145 4.83872 5.34889 4.83872 5.24194Z" fill="#767676"/>
</svg>
