<svg width="51" height="46" viewBox="0 0 51 46" fill="none" xmlns="http://www.w3.org/2000/svg">
<path d="M36.2266 45.2589V20.2151C36.2266 19.5319 35.6728 18.978 34.9895 18.978H28.0256C27.3424 18.978 26.7886 19.5319 26.7886 20.2151V45.2589H36.2266Z" fill="#DDE1F9"/>
<path d="M48.6416 45.2587V12.3972C48.6416 11.714 48.0877 11.1602 47.4046 11.1602H40.4406C39.7575 11.1602 39.2036 11.714 39.2036 12.3972V45.2587H48.6416Z" fill="#DDE1F9"/>
<path d="M11.397 45.2586V35.8503C11.397 35.1672 10.8431 34.6133 10.16 34.6133H3.19601C2.51286 34.6133 1.95898 35.1671 1.95898 35.8503V45.2586H11.397Z" fill="#DDE1F9"/>
<path d="M23.812 45.2587V28.0327C23.812 27.3495 23.2581 26.7957 22.575 26.7957H15.611C14.9279 26.7957 14.374 27.3495 14.374 28.0327V45.2587H23.812Z" fill="#DDE1F9"/>
<path d="M30.9907 18.978H28.0256C27.3424 18.978 26.7886 19.5319 26.7886 20.2151V45.2589H29.7536V20.215C29.7536 19.5318 30.3074 18.978 30.9907 18.978Z" fill="#811AFF"/>
<path d="M43.4057 11.1602H40.4406C39.7575 11.1602 39.2036 11.714 39.2036 12.3972V45.2587H42.1687V12.3972C42.1687 11.714 42.7225 11.1602 43.4057 11.1602Z" fill="#811AFF"/>
<path d="M6.16107 34.6135H3.19601C2.51276 34.6135 1.95898 35.1674 1.95898 35.8505V45.2589H4.92405V35.8505C4.92405 35.1673 5.47792 34.6135 6.16107 34.6135Z" fill="#811AFF"/>
<path d="M18.5761 26.7957H15.611C14.9279 26.7957 14.374 27.3495 14.374 28.0327V45.2587H17.3391V28.0327C17.3392 27.3495 17.893 26.7957 18.5761 26.7957Z" fill="#811AFF"/>
<path d="M49.8594 45.9999H0.741266C0.331889 45.9999 0 45.6681 0 45.2586C0 44.8491 0.331889 44.5173 0.741266 44.5173H49.8594C50.2688 44.5173 50.6007 44.8491 50.6007 45.2586C50.6007 45.6681 50.2688 45.9999 49.8594 45.9999Z" fill="#811AFF"/>
<path d="M44.682 0.0914402L40.4229 0.000116294C40.0472 -0.00798821 39.817 0.409196 40.024 0.722801L40.8001 1.89805L5.91811 24.9339C5.45042 25.2428 5.32164 25.8724 5.6305 26.3401C5.93936 26.8077 6.56885 26.9365 7.03663 26.6277L41.9187 3.5918L42.6949 4.76705C42.9019 5.08065 43.376 5.03272 43.5162 4.68403L45.1045 0.731202C45.2259 0.428865 45.0077 0.0984575 44.682 0.0914402Z" fill="#811AFF"/>
</svg>
