<svg width="47" height="50" viewBox="0 0 47 50" fill="none" xmlns="http://www.w3.org/2000/svg">
<path d="M42.1915 17.6895C42.1915 17.2724 42.1915 16.8556 42.1915 16.6471C42.1915 12.0611 38.7396 8.30899 34.5204 8.30899C33.7531 8.30899 32.7944 8.5174 32.0272 8.72582C30.1095 2.0553 23.7806 -1.4887 17.6437 0.596082C12.8493 2.26371 9.5891 7.05819 9.5891 12.4779C4.21918 12.4779 0 17.064 0 22.9008C0 28.7377 4.21918 33.3238 9.5891 33.3238H38.3561C42.5753 33.3238 46.0272 29.5714 46.0272 24.9853C46.0272 22.0672 44.493 19.1487 42.1915 17.6895Z" fill="#FFDFC6"/>
<path d="M42.1913 29.1546H13.4244C8.05474 29.1546 3.83556 24.5685 3.83556 18.7316C3.83556 17.064 4.21904 15.3964 4.9863 13.7288C0.383339 16.4388 -1.34262 22.6925 1.1506 27.6954C2.87656 31.239 6.13674 33.3238 9.58895 33.3238H38.3559C41.4244 33.3238 44.1093 31.4474 45.2601 28.3206C44.3011 28.9462 43.3421 29.1546 42.1913 29.1546Z" fill="#FFDFC6"/>
<path d="M34.5202 27.0701L26.8491 39.5775H30.6845L28.7668 50.0001L36.4379 37.4927H32.6025L34.5202 27.0701Z" fill="#FC8021"/>
<path d="M26.8491 16.647L19.1777 29.1544H23.0134L21.0957 39.5773L28.7668 27.0699H24.9311L26.8491 16.647Z" fill="#FC8021"/>
<path d="M15.3423 27.0701L7.6709 39.5775H11.5066L9.5889 50.0001L17.26 37.4927H13.4243L15.3423 27.0701Z" fill="#FC8021"/>
</svg>
