<svg width="42" height="42" viewBox="0 0 42 42" fill="none" xmlns="http://www.w3.org/2000/svg">
<path d="M23.625 42.0001H18.375C17.15 42.0001 15.75 40.9501 15.75 38.8501V35.1751C15.75 33.4251 14.875 31.8501 13.475 30.6251C10.325 28.1751 8.75 24.675 8.75 20.825C8.925 14.175 14.35 8.925 20.825 8.75C24.15 8.75 27.3 9.975 29.5751 12.25C31.8501 14.525 33.2501 17.675 33.2501 21C33.2501 24.675 31.6751 28.1751 28.7001 30.4501C27.125 31.6751 26.25 33.6001 26.25 35.3501V39.3751C26.25 40.7751 25.025 42.0001 23.625 42.0001ZM21 10.5C15.4 10.5 10.675 15.225 10.5 20.825C10.5 24.15 11.9 27.3001 14.525 29.2251C16.45 30.8001 17.5 32.9001 17.5 35.1751V38.8501C17.5 39.2001 17.5 40.2501 18.375 40.2501H23.625C24.15 40.2501 24.5 39.9001 24.5 39.3751V35.3501C24.5 33.0751 25.725 30.6251 27.6501 29.0501C30.1001 27.1251 31.5001 24.15 31.5001 21C31.5001 18.2 30.4501 15.575 28.3501 13.475C26.425 11.55 23.8 10.5 21 10.5Z" fill="#8C33FE"/>
<path d="M25.375 36.75H16.625C16.1 36.75 15.75 36.4 15.75 35.875C15.75 35.35 16.1 35 16.625 35H25.375C25.9 35 26.25 35.35 26.25 35.875C26.25 36.4 25.9 36.75 25.375 36.75Z" fill="#8C33FE"/>
<path d="M21 5.25001C20.475 5.25001 20.125 4.90001 20.125 4.37501V0.875002C20.125 0.350001 20.475 0 21 0C21.525 0 21.875 0.350001 21.875 0.875002V4.37501C21.875 4.90001 21.525 5.25001 21 5.25001Z" fill="#8C33FE"/>
<path d="M32.7252 10.1501C32.5502 10.1501 32.2002 10.1501 32.0252 9.97511C31.6752 9.62511 31.6752 9.10011 32.0252 8.7501L34.4752 6.3001C34.8252 5.9501 35.3502 5.9501 35.7002 6.3001C36.0502 6.6501 36.0502 7.1751 35.7002 7.5251L33.2502 9.97511C33.2502 9.97511 32.9002 10.1501 32.7252 10.1501Z" fill="#8C33FE"/>
<path d="M41.125 21.875H37.625C37.1 21.875 36.75 21.525 36.75 21C36.75 20.475 37.1 20.125 37.625 20.125H41.125C41.65 20.125 42 20.475 42 21C42 21.525 41.65 21.875 41.125 21.875Z" fill="#8C33FE"/>
<path d="M35.1752 36.0503C35.0002 36.0503 34.6502 36.0503 34.4752 35.8753L32.0252 33.4253C31.6752 33.0752 31.6752 32.5502 32.0252 32.2002C32.3752 31.8502 32.9002 31.8502 33.2502 32.2002L35.7002 34.6503C36.0502 35.0003 36.0502 35.5253 35.7002 35.8753C35.7002 36.0503 35.5252 36.0503 35.1752 36.0503Z" fill="#8C33FE"/>
<path d="M6.82481 36.0503C6.64981 36.0503 6.29981 36.0503 6.12481 35.8753C5.7748 35.5253 5.7748 35.0003 6.12481 34.6503L8.57481 32.2002C8.92481 31.8502 9.44981 31.8502 9.79982 32.2002C10.1498 32.5502 10.1498 33.0752 9.79982 33.4253L7.34981 35.8753C7.17481 36.0503 6.99981 36.0503 6.82481 36.0503Z" fill="#8C33FE"/>
<path d="M4.37501 21.875H0.875002C0.350001 21.875 0 21.525 0 21C0 20.475 0.350001 20.125 0.875002 20.125H4.37501C4.90001 20.125 5.25001 20.475 5.25001 21C5.25001 21.525 4.90001 21.875 4.37501 21.875Z" fill="#8C33FE"/>
<path d="M9.27481 10.1498C9.09981 10.1498 8.74981 10.1498 8.57481 9.97482L6.12481 7.34981C5.7748 6.99981 5.7748 6.47481 6.12481 6.12481C6.47481 5.7748 6.99981 5.7748 7.34981 6.12481L9.79982 8.57481C10.1498 8.92481 10.1498 9.44982 9.79982 9.79982C9.62481 9.97482 9.44981 10.1498 9.27481 10.1498Z" fill="#8C33FE"/>
<path d="M28 21.875C27.475 21.875 27.125 21.525 27.125 21C27.125 17.675 24.325 14.875 21 14.875C20.475 14.875 20.125 14.525 20.125 14C20.125 13.475 20.475 13.125 21 13.125C25.375 13.125 28.875 16.625 28.875 21C28.875 21.525 28.525 21.875 28 21.875Z" fill="#8C33FE"/>
</svg>
