<svg width="24" height="25" viewBox="0 0 24 25" fill="none" xmlns="http://www.w3.org/2000/svg">
<path d="M22.015 7.70453C21.6708 3.40879 18.0322 0.0175781 13.6089 0.0175781H10.3168C5.89355 0.0175781 2.25498 3.40879 1.91079 7.70453C0.81748 7.95798 0 8.93803 0 10.1058V14.146C0 15.3143 0.81831 16.2947 1.91245 16.5476C2.23872 20.4155 5.37324 23.505 9.28472 23.8026C9.54048 24.4905 10.2043 24.982 10.9811 24.982H12.7227C13.7201 24.982 14.5316 24.1717 14.5316 23.1757V23.0138C14.5316 22.0178 13.7201 21.2075 12.7227 21.2075H10.9811C10.2237 21.2075 9.57393 21.675 9.30488 22.336C6.18779 22.055 3.69424 19.6077 3.38184 16.5333C3.87563 16.4057 4.30947 16.1285 4.63306 15.7539C5.98018 18.414 8.75962 20.2444 11.9629 20.2444C15.1662 20.2444 17.9456 18.414 19.2927 15.7539C19.7458 16.2786 20.4157 16.6117 21.1623 16.6117H21.4566C22.8181 16.6117 23.9258 15.5056 23.9258 14.1461V10.1058C23.9258 8.93803 23.1083 7.95798 22.015 7.70453ZM10.6371 23.0138C10.6371 22.8244 10.7914 22.6703 10.9811 22.6703H12.7227C12.9124 22.6703 13.0667 22.8244 13.0667 23.0138V23.1757C13.0667 23.3651 12.9124 23.5193 12.7227 23.5193H10.9811C10.7914 23.5193 10.6371 23.3651 10.6371 23.1757V23.0138ZM10.3168 1.48034H13.6089C17.2283 1.48034 20.2116 4.2236 20.5455 7.71804C20.051 7.84549 19.6166 8.12288 19.2927 8.49798C17.9456 5.8378 15.1662 4.0074 11.9629 4.0074C8.75962 4.0074 5.98018 5.8378 4.63306 8.49798C4.30913 8.12288 3.87471 7.84549 3.38022 7.71804C3.71426 4.2236 6.69751 1.48034 10.3168 1.48034ZM3.76777 14.146C3.76777 14.699 3.31724 15.1489 2.76348 15.1489H2.46914C1.91538 15.1489 1.46484 14.699 1.46484 14.146V10.1058C1.46484 9.55278 1.91538 9.10293 2.46914 9.10293H2.76348C3.31724 9.10293 3.76777 9.55283 3.76777 10.1058V14.146ZM11.9629 18.7816C8.25181 18.7816 5.23262 15.7959 5.23262 12.1259C5.23262 8.4559 8.25181 5.47016 11.9629 5.47016C15.674 5.47016 18.6932 8.4559 18.6932 12.1259C18.6932 15.7959 15.674 18.7816 11.9629 18.7816ZM22.4609 14.146C22.4609 14.699 22.0104 15.1489 21.4566 15.1489H21.1623C20.6085 15.1489 20.158 14.699 20.158 14.146V10.1058C20.158 9.55278 20.6085 9.10293 21.1623 9.10293H21.4566C22.0104 9.10293 22.4609 9.55283 22.4609 10.1058V14.146Z" fill="#5DC8AC"/>
<path d="M9.43603 11.3012C9.84053 11.3012 10.1685 10.9737 10.1685 10.5698V9.86493C10.1685 9.46101 9.84053 9.13354 9.43603 9.13354C9.03154 9.13354 8.70361 9.46101 8.70361 9.86493V10.5698C8.70361 10.9737 9.03154 11.3012 9.43603 11.3012Z" fill="#5DC8AC"/>
<path d="M14.4897 9.13354C14.0853 9.13354 13.7573 9.46101 13.7573 9.86493V10.5698C13.7573 10.9737 14.0853 11.3012 14.4897 11.3012C14.8942 11.3012 15.2222 10.9737 15.2222 10.5698V9.86493C15.2222 9.46101 14.8942 9.13354 14.4897 9.13354Z" fill="#5DC8AC"/>
<path d="M14.4896 12.6951C14.0852 12.6951 13.7572 13.0225 13.7572 13.4264C13.7572 13.8419 13.4129 14.1798 12.9897 14.1798H10.9359C10.5127 14.1798 10.1685 13.8418 10.1685 13.4264C10.1685 13.0225 9.84053 12.6951 9.43604 12.6951C9.03154 12.6951 8.70361 13.0225 8.70361 13.4264C8.70361 14.6484 9.70503 15.6425 10.9359 15.6425H12.9897C14.2207 15.6425 15.2221 14.6484 15.2221 13.4264C15.2221 13.0225 14.8941 12.6951 14.4896 12.6951Z" fill="#5DC8AC"/>
</svg>
