<svg width="65" height="70" viewBox="0 0 65 70" fill="none" xmlns="http://www.w3.org/2000/svg">
<path d="M5.8393 26.2223C4.63116 26.2223 3.65063 25.2418 3.65063 24.0336V21.114C3.65063 19.9058 4.63116 18.9253 5.8393 18.9253C7.04744 18.9253 8.02796 19.9058 8.02796 21.114V24.0336C8.02796 25.2418 7.04744 26.2223 5.8393 26.2223Z" fill="#FF8974"/>
<path d="M6.20267 23.3069H2.18866C0.980521 23.3069 0 22.3264 0 21.1182C0 19.9101 0.980521 18.9296 2.18866 18.9296H6.20267C6.80674 18.9296 7.297 18.4393 7.297 17.8353C7.297 17.2312 6.80674 16.7409 6.20267 16.7409H5.47166C2.45568 16.7409 0 14.2852 0 11.2693C0 8.25329 2.45568 5.79761 5.47166 5.79761H9.48566C10.6938 5.79761 11.6743 6.77813 11.6743 7.98627C11.6743 9.19441 10.6938 10.1749 9.48566 10.1749H5.47166C4.86759 10.1749 4.37733 10.6652 4.37733 11.2693C4.37733 11.8733 4.86759 12.3636 5.47166 12.3636H6.20267C9.21865 12.3636 11.6743 14.8193 11.6743 17.8353C11.6743 20.8512 9.21865 23.3069 6.20267 23.3069Z" fill="#FF8974"/>
<path d="M5.8393 10.1749C4.63116 10.1749 3.65063 9.19441 3.65063 7.98627V5.06659C3.65063 3.85845 4.63116 2.87793 5.8393 2.87793C7.04744 2.87793 8.02796 3.85845 8.02796 5.06659V7.98627C8.02796 9.19441 7.04744 10.1749 5.8393 10.1749Z" fill="#FF8974"/>
<path d="M58.3671 43.7316C57.159 43.7316 56.1785 42.7511 56.1785 41.5429V38.6232C56.1785 37.4151 57.159 36.4346 58.3671 36.4346C59.5753 36.4346 60.5558 37.4151 60.5558 38.6232V41.5429C60.5558 42.7511 59.5753 43.7316 58.3671 43.7316Z" fill="#FF8974"/>
<path d="M58.7305 40.8162H54.7165C53.5084 40.8162 52.5278 39.8357 52.5278 38.6275C52.5278 37.4194 53.5084 36.4389 54.7165 36.4389H58.7305C59.3346 36.4389 59.8248 35.9486 59.8248 35.3445C59.8248 34.7405 59.3346 34.2502 58.7305 34.2502H57.9995C54.9835 34.2502 52.5278 31.7945 52.5278 28.7785C52.5278 25.7626 54.9835 23.3069 57.9995 23.3069H62.0135C63.2216 23.3069 64.2022 24.2874 64.2022 25.4955C64.2022 26.7037 63.2216 27.6842 62.0135 27.6842H57.9995C57.3954 27.6842 56.9052 28.1745 56.9052 28.7785C56.9052 29.3826 57.3954 29.8729 57.9995 29.8729H58.7305C61.7465 29.8729 64.2022 32.3286 64.2022 35.3445C64.2022 38.3605 61.7465 40.8162 58.7305 40.8162Z" fill="#FF8974"/>
<path d="M58.3671 27.6842C57.159 27.6842 56.1785 26.7037 56.1785 25.4955V22.5759C56.1785 21.3677 57.159 20.3872 58.3671 20.3872C59.5753 20.3872 60.5558 21.3677 60.5558 22.5759V25.4955C60.5558 26.7037 59.5753 27.6842 58.3671 27.6842Z" fill="#FF8974"/>
<path d="M42.3156 58.3256C41.1075 58.3256 40.127 57.3451 40.127 56.1369V50.3019C40.127 49.0938 41.1075 48.1133 42.3156 48.1133C43.5238 48.1133 44.5043 49.0938 44.5043 50.3019V56.1369C44.5043 57.3451 43.5238 58.3256 42.3156 58.3256Z" fill="#FF8974"/>
<path d="M16.0517 58.3256C14.8436 58.3256 13.863 57.3451 13.863 56.1369V50.3019C13.863 49.0938 14.8436 48.1133 16.0517 48.1133C17.2598 48.1133 18.2404 49.0938 18.2404 50.3019V56.1369C18.2404 57.3451 17.2598 58.3256 16.0517 58.3256Z" fill="#FF8974"/>
<path d="M47.262 41.937L40.8579 35.5329V17.9667C40.8579 14.7932 39.7549 11.6896 37.7544 9.22521L30.882 0.768221C30.0503 -0.256073 28.3169 -0.256073 27.4852 0.768221L20.6128 9.22521C18.6124 11.6896 17.5093 14.7932 17.5093 17.9624V35.5286L11.1053 41.9326C9.59071 43.4471 8.75464 45.4651 8.75464 47.61V50.2977C8.75464 51.5058 9.73516 52.4863 10.9433 52.4863H47.4196C48.6277 52.4863 49.6082 51.5058 49.6082 50.2977V47.61C49.6126 45.4651 48.7765 43.4515 47.262 41.937ZM34.3795 19.7965C33.9505 20.2254 33.3902 20.4355 32.8299 20.4355C32.2696 20.4355 31.7093 20.2211 31.2804 19.7965C30.1247 18.6408 28.2381 18.6408 27.0781 19.7965C26.2245 20.65 24.8369 20.65 23.9834 19.7965C23.1298 18.9429 23.1298 17.5553 23.9834 16.7017C26.8461 13.8389 31.508 13.8389 34.3751 16.7017C35.2331 17.5553 35.2331 18.9429 34.3795 19.7965Z" fill="#FF8974"/>
<path d="M57.2554 69.9957H44.7669L43.3968 67.7195C42.1405 65.649 40.4202 63.8674 38.4373 62.5849C40.3939 61.2717 42.727 60.5144 45.2352 60.5144C47.9798 60.5144 50.488 61.4205 52.5322 62.9351C54.8654 64.5984 56.5856 67.1067 57.2554 69.9957Z" fill="#FF8974"/>
<path d="M19.9037 62.6155C17.8901 63.9594 16.1961 65.7103 14.9704 67.7239L13.6003 70.0001H1.05054C1.72027 67.0804 3.44493 64.6028 5.80869 62.9088C7.8529 61.3899 10.3611 60.5144 13.075 60.5144C15.6139 60.5144 17.947 61.2717 19.9037 62.6155Z" fill="#FF8974"/>
<path d="M39.6586 69.9956H18.7043C19.7855 68.214 21.3307 66.7564 23.1692 65.7365C24.9508 64.7428 26.9906 64.1606 29.1793 64.1606C31.3373 64.1606 33.3815 64.7166 35.1631 65.7365C37.0059 66.7301 38.5818 68.2184 39.6586 69.9956Z" fill="#FF8974"/>
</svg>
