<svg width="26" height="18" viewBox="0 0 26 18" fill="none" xmlns="http://www.w3.org/2000/svg">
<path d="M4.69437 7.82658C4.69437 7.60433 4.78985 7.39304 4.95262 7.24435L12.7783 0.201218C13.0084 -0.00538074 13.3386 -0.0585952 13.6219 0.0681812C13.9037 0.194958 14.0852 0.475118 14.0852 0.783451V4.71821C19.6978 5.03281 23.9863 8.72654 24.6343 13.9165L25.0349 17.1188C25.0803 17.4835 24.8675 17.831 24.52 17.953C24.4339 17.9843 24.3463 18 24.2586 18C23.9957 18 23.7406 17.8654 23.595 17.6322L22.8078 16.3707C21.2457 13.8727 18.1202 10.9569 14.4499 10.9569H14.0852V14.8697C14.0852 15.1781 13.9037 15.4582 13.6219 15.585C13.3386 15.7071 13.01 15.6601 12.7799 15.452L4.95419 8.40882C4.78985 8.26013 4.69437 8.04883 4.69437 7.82658Z" fill="#761AEA"/>
<path d="M0.257323 7.24435L8.08303 0.201217C8.40388 -0.0867686 8.89847 -0.0601609 9.18958 0.259128C9.47913 0.581547 9.45253 1.07613 9.13167 1.36568L1.95081 7.82658L9.13167 14.2875C9.45253 14.5786 9.47913 15.0716 9.18958 15.394C9.03307 15.5646 8.82177 15.6523 8.60735 15.6523C8.4211 15.6523 8.23328 15.5866 8.08303 15.452L0.257323 8.40882C0.0945482 8.26013 -0.000925064 8.04883 -0.000925064 7.82658C-0.000925064 7.60433 0.0945482 7.39304 0.257323 7.24435Z" fill="#761AEA"/>
</svg>
