<svg width="23" height="24" viewBox="0 0 23 24" fill="none" xmlns="http://www.w3.org/2000/svg">
<path d="M9.96665 7.89697C9.33262 7.89697 8.81665 8.41221 8.81665 9.04534H9.58332C9.58332 8.83442 9.75505 8.66255 9.96665 8.66255C10.1783 8.66255 10.35 8.83442 10.35 9.04534H11.1167C11.1167 8.41221 10.6007 7.89697 9.96665 7.89697Z" fill="#5DC8AC"/>
<path d="M13.0333 7.89697C12.3993 7.89697 11.8833 8.41221 11.8833 9.04534H12.65C12.65 8.83442 12.8217 8.66255 13.0333 8.66255C13.2449 8.66255 13.4166 8.83442 13.4166 9.04534H14.1833C14.1833 8.41221 13.6673 7.89697 13.0333 7.89697Z" fill="#5DC8AC"/>
<path d="M20.7 22.8257V17.8495C20.7 14.6835 18.1206 12.1077 14.95 12.1077H14.5325C14.669 11.9879 14.7974 11.86 14.9189 11.7249H15.3333C16.3902 11.7249 17.25 10.8663 17.25 9.81094V9.13647C17.7119 8.82717 18.0167 8.30122 18.0167 7.7056C18.0167 7.10769 17.7096 6.58097 17.2454 6.27206C17.1944 3.14966 14.6391 0.624023 11.5 0.624023C8.36088 0.624023 5.80558 3.14966 5.7546 6.27206C5.29038 6.58097 4.98333 7.10769 4.98333 7.7056C4.98333 8.6553 5.75728 9.42815 6.70833 9.42815H6.96938C7.14878 10.4889 7.69158 11.4255 8.46783 12.1077H8.05C4.87945 12.1077 2.3 14.6835 2.3 17.8495V22.8257H0V23.5913H2.68333H4.6H18.4H20.3167H23V22.8257H20.7ZM16.4833 9.81094C16.4833 10.3916 16.0479 10.8678 15.4871 10.9436C15.7527 10.4824 15.939 9.97133 16.0306 9.42815H16.2917C16.3572 9.42815 16.4197 9.4159 16.4833 9.40863V9.81094ZM17.25 7.7056C17.25 8.23309 16.8203 8.66257 16.2917 8.66257H16.1V6.74863H16.2917C16.8203 6.74863 17.25 7.17812 17.25 7.7056ZM6.9 8.66257H6.70833C6.17972 8.66257 5.75 8.23309 5.75 7.7056C5.75 7.17812 6.17972 6.74863 6.70833 6.74863H6.9V8.66257ZM6.70833 5.98306C6.64892 5.98306 6.59295 5.99454 6.53507 6.00067C6.72367 3.42718 8.8757 1.3896 11.5 1.3896C14.1243 1.3896 16.2763 3.42718 16.4649 6.00067C16.407 5.99454 16.3511 5.98306 16.2917 5.98306H16.0306C15.6642 3.81418 13.7747 2.15518 11.5 2.15518C9.2253 2.15518 7.33585 3.81418 6.96938 5.98306H6.70833ZM15.3329 6.73906C12.5664 6.64184 10.7333 5.51223 10.7333 4.45191C10.7333 4.24061 10.562 4.06912 10.35 4.06912C10.138 4.06912 9.96667 4.24061 9.96667 4.45191C9.96667 5.40849 8.97613 6.20125 7.6889 6.34173C7.89322 4.42167 9.5243 2.92075 11.5 2.92075C13.6102 2.92075 15.3276 4.63296 15.3329 6.73906ZM7.66667 8.66257V7.10999C8.86382 7.00625 9.87965 6.42977 10.3868 5.62247C11.1887 6.68356 13.0628 7.43038 15.3333 7.50655V8.66257C15.3333 9.525 15.0428 10.3185 14.5594 10.9593H11.5V11.7249H13.79C13.57 11.8895 13.3327 12.0311 13.0797 12.1459C12.0738 12.6022 10.9258 12.6022 9.91952 12.1459C8.59318 11.5434 7.66667 10.2106 7.66667 8.66257ZM10.3151 13.096C10.6938 13.1971 11.0898 13.256 11.5 13.256C11.9102 13.256 12.3061 13.1971 12.6849 13.096L11.5 15.4624L10.3151 13.096ZM10.8798 15.9356H10.2036L8.67023 12.8732H9.34643L10.8798 15.9356ZM13.6536 12.8732H14.3298L12.7964 15.9356H12.1202L13.6536 12.8732ZM4.21667 17.8495V22.8257H3.06667V17.8495C3.06667 15.1834 5.17883 13.0068 7.81885 12.8851L9.34643 15.9356H6.13333C5.07648 15.9356 4.21667 16.7941 4.21667 17.8495ZM18.0167 22.8257H4.98333V17.8495C4.98333 17.2164 5.4993 16.7011 6.13333 16.7011H9.96667H11.5H13.0333H16.8667C17.5007 16.7011 18.0167 17.2164 18.0167 17.8495V22.8257ZM19.9333 22.8257H18.7833V17.8495C18.7833 16.7941 17.9235 15.9356 16.8667 15.9356H13.6536L15.1811 12.8851C17.8212 13.0068 19.9333 15.1834 19.9333 17.8495V22.8257Z" fill="#5DC8AC"/>
<path d="M17.2501 19.3806H16.4834V22.0601H17.2501V19.3806Z" fill="#5DC8AC"/>
<path d="M17.2501 17.8495H16.4834V18.6151H17.2501V17.8495Z" fill="#5DC8AC"/>
</svg>
