<svg width="41" height="41" viewBox="0 0 41 41" fill="none" xmlns="http://www.w3.org/2000/svg">
<path d="M23.0624 40.9999H17.9374C16.7415 40.9999 15.3749 39.9749 15.3749 37.9249V34.3374C15.3749 32.6291 14.5207 31.0916 13.154 29.8957C10.079 27.5041 8.5415 24.0874 8.5415 20.329C8.71234 13.8374 14.0082 8.71234 20.329 8.5415C23.5749 8.5415 26.6499 9.73734 28.8707 11.9582C31.0916 14.179 32.4582 17.254 32.4582 20.4999C32.4582 24.0874 30.9207 27.5041 28.0166 29.7249C26.4791 30.9207 25.6249 32.7999 25.6249 34.5082V38.4374C25.6249 39.8041 24.429 40.9999 23.0624 40.9999ZM20.4999 10.2498C15.0332 10.2498 10.4207 14.8624 10.2498 20.329C10.2498 23.5749 11.6165 26.6499 14.179 28.5291C16.0582 30.0666 17.0832 32.1166 17.0832 34.3374V37.9249C17.0832 38.2666 17.0832 39.2916 17.9374 39.2916H23.0624C23.5749 39.2916 23.9165 38.9499 23.9165 38.4374V34.5082C23.9165 32.2874 25.1124 29.8957 26.9916 28.3582C29.3832 26.4791 30.7499 23.5749 30.7499 20.4999C30.7499 17.7665 29.7249 15.204 27.6749 13.154C25.7957 11.2748 23.2332 10.2498 20.4999 10.2498Z" fill="white"/>
<path d="M24.7709 35.8748H16.2292C15.7167 35.8748 15.375 35.5332 15.375 35.0207C15.375 34.5082 15.7167 34.1665 16.2292 34.1665H24.7709C25.2834 34.1665 25.625 34.5082 25.625 35.0207C25.625 35.5332 25.2834 35.8748 24.7709 35.8748Z" fill="white"/>
<path d="M20.5002 5.12501C19.9877 5.12501 19.646 4.78335 19.646 4.27084V0.854169C19.646 0.341668 19.9877 0 20.5002 0C21.0127 0 21.3543 0.341668 21.3543 0.854169V4.27084C21.3543 4.78335 21.0127 5.12501 20.5002 5.12501Z" fill="white"/>
<path d="M31.9459 9.90839C31.7751 9.90839 31.4334 9.90839 31.2626 9.73756C30.9209 9.39589 30.9209 8.88339 31.2626 8.54172L33.6543 6.15005C33.9959 5.80838 34.5084 5.80838 34.8501 6.15005C35.1918 6.49172 35.1918 7.00422 34.8501 7.34589L32.4584 9.73756C32.4584 9.73756 32.1168 9.90839 31.9459 9.90839Z" fill="white"/>
<path d="M40.1458 21.3543H36.7292C36.2167 21.3543 35.875 21.0127 35.875 20.5002C35.875 19.9877 36.2167 19.646 36.7292 19.646H40.1458C40.6583 19.646 41 19.9877 41 20.5002C41 21.0127 40.6583 21.3543 40.1458 21.3543Z" fill="white"/>
<path d="M34.3376 35.1921C34.1668 35.1921 33.8251 35.1921 33.6543 35.0213L31.2626 32.6296C30.9209 32.2879 30.9209 31.7754 31.2626 31.4337C31.6043 31.0921 32.1168 31.0921 32.4584 31.4337L34.8501 33.8254C35.1918 34.1671 35.1918 34.6796 34.8501 35.0213C34.8501 35.1921 34.6793 35.1921 34.3376 35.1921Z" fill="white"/>
<path d="M6.66249 35.1921C6.49165 35.1921 6.14998 35.1921 5.97915 35.0213C5.63748 34.6796 5.63748 34.1671 5.97915 33.8254L8.37082 31.4337C8.71249 31.0921 9.22499 31.0921 9.56666 31.4337C9.90833 31.7754 9.90833 32.2879 9.56666 32.6296L7.17499 35.0213C7.00415 35.1921 6.83332 35.1921 6.66249 35.1921Z" fill="white"/>
<path d="M4.27084 21.3543H0.854169C0.341668 21.3543 0 21.0127 0 20.5002C0 19.9877 0.341668 19.646 0.854169 19.646H4.27084C4.78335 19.646 5.12501 19.9877 5.12501 20.5002C5.12501 21.0127 4.78335 21.3543 4.27084 21.3543Z" fill="white"/>
<path d="M9.05416 9.90833C8.88333 9.90833 8.54166 9.90833 8.37082 9.73749L5.97915 7.17499C5.63748 6.83332 5.63748 6.32082 5.97915 5.97915C6.32082 5.63748 6.83332 5.63748 7.17499 5.97915L9.56666 8.37082C9.90833 8.71249 9.90833 9.22499 9.56666 9.56666C9.39583 9.73749 9.22499 9.90833 9.05416 9.90833Z" fill="white"/>
<path d="M27.3335 21.3542C26.821 21.3542 26.4793 21.0125 26.4793 20.5C26.4793 17.2542 23.746 14.5208 20.5002 14.5208C19.9877 14.5208 19.646 14.1792 19.646 13.6667C19.646 13.1542 19.9877 12.8125 20.5002 12.8125C24.771 12.8125 28.1877 16.2292 28.1877 20.5C28.1877 21.0125 27.846 21.3542 27.3335 21.3542Z" fill="white"/>
</svg>
